<?xml version="1.0" encoding="UTF-8"?>
<svg width="353px" height="359px" viewBox="0 0 353 359" version="1.1" xmlns="http://www.w3.org/2000/svg" xmlns:xlink="http://www.w3.org/1999/xlink">
    <!-- Generator: Sketch 47.1 (45422) - http://www.bohemiancoding.com/sketch -->
    <title>Group 4</title>
    <desc>Created with Sketch.</desc>
    <defs>
        <polygon id="path-1" points="0.194688722 0.30409669 29.3694574 0.30409669 29.3694574 23.7484825 0.194688722 23.7484825"></polygon>
        <path d="M103.385513,133.698983 C108.91415,133.698983 118.865697,134.799386 118.865697,137.000192 C118.865697,137.670338 116.654242,140.301402 111.125605,137.000192 C110.271983,136.490706 117.716846,141.444721 116.654242,142.502208 C114.442787,144.703015 111.062578,138.921496 110.019877,139.200999 C108.938476,139.491505 112.965535,144.703015 112.231332,144.703015 C108.91415,144.703015 108.91415,141.401805 105.596968,141.401805 C102.279786,141.401805 101.174058,143.602611 95.6454211,143.602611 C90.0283259,143.602611 74.7217413,100.06406 72.3300529,107.339926 C66.5935391,124.787918 52.2257171,143.375928 34.2775498,144.152813 C8.8458193,145.253216 0,125.445959 0,82.5302364 C0,39.6145135 53.0749158,19.8072567 53.0749158,19.8072567 C53.0749158,19.8072567 60.8150077,7.70282207 65.2379173,0 C65.2379173,0 82.3766922,18.156652 90.1167841,28.0602804 C97.856876,37.9639088 98.9626034,61.072375 97.856876,69.8756002 C96.7511485,78.6788254 91.2225115,94.0844695 91.2225115,103.988098 C91.2225115,113.891726 94.5396937,121.594548 100.068331,133.698983 L103.385513,133.698983 Z" id="path-3"></path>
        <filter x="-0.7%" y="-0.8%" width="102.3%" height="102.1%" filterUnits="objectBoundingBox" id="filter-4">
            <feMorphology radius="0.367500019" operator="dilate" in="SourceAlpha" result="shadowSpreadOuter1"></feMorphology>
            <feOffset dx="1" dy="1" in="shadowSpreadOuter1" result="shadowOffsetOuter1"></feOffset>
            <feComposite in="shadowOffsetOuter1" in2="SourceAlpha" operator="out" result="shadowOffsetOuter1"></feComposite>
            <feColorMatrix values="0 0 0 0 0.137254902   0 0 0 0 0.117647059   0 0 0 0 0.121568627  0 0 0 1 0" type="matrix" in="shadowOffsetOuter1"></feColorMatrix>
        </filter>
        <path d="M31.7027646,0 C37.3747548,0 47.6874644,4.04273189 53.3594547,5.05277136 C59.0314449,6.06332564 60.5783514,8.58996872 60.5783514,18.1904917 C60.5783514,27.7904999 60.7681052,47.5351757 43.5623806,53.6952839 C36.3434839,56.2790699 32.2184,60.2317116 32.2184,60.2317116 C32.2184,60.2317116 29.1245872,56.1060968 22.9369614,55.0955425 C16.7493357,54.085503 3.85844872,44.4649028 3.85844872,29.8116085 C3.85844872,15.1583141 3.34281324,9.09498846 6.95226159,6.56886017 C10.5617099,4.04273189 31.7027646,0 31.7027646,0" id="path-5"></path>
        <filter x="-0.9%" y="-0.8%" width="101.8%" height="103.3%" filterUnits="objectBoundingBox" id="filter-6">
            <feOffset dx="0" dy="1" in="SourceAlpha" result="shadowOffsetOuter1"></feOffset>
            <feColorMatrix values="0 0 0 0 0.137254902   0 0 0 0 0.117647059   0 0 0 0 0.121568627  0 0 0 1 0" type="matrix" in="shadowOffsetOuter1"></feColorMatrix>
        </filter>
    </defs>
    <g id="✅-Maquettes" stroke="none" stroke-width="1" fill="none" fill-rule="evenodd">
        <g id="Exercice-04" transform="translate(-48.000000, -104.000000)">
            <g id="Group-4" transform="translate(43.000000, 35.090639)">
                <path d="M179.963927,422.15107 C224.30771,422.15107 320.352718,448.651208 332.552799,384.309021 C350.869644,287.707537 250.456351,343.711607 264.408196,284.034744 C286.830542,188.126615 193.427968,113.186685 121.620614,146.006385 C49.8132588,178.826084 58.6712493,234.019073 58.6712493,300.954236 C58.6712493,367.889399 112.975831,422.15107 179.963927,422.15107 Z" id="Oval-2" fill="#59B38F"></path>
                <path d="M140.865103,262.603463 C207.016914,227.738321 242.611347,285.016828 260.097601,237.4198 C276.668352,192.314743 180.069548,200.694579 206.085412,155.929682 C243.489957,91.568544 151.26402,23.9756345 95.8037986,49.3238428 C40.3435774,74.6720511 47.185023,117.300211 47.185023,168.997408 C47.185023,220.694605 93.7349962,287.443265 140.865103,262.603463 Z" id="Oval-2" fill="#407781" transform="translate(154.469778, 155.912202) rotate(320.000000) translate(-154.469778, -155.912202) "></path>
                <g id="Page-1" transform="translate(0.000000, 98.279346)">
                    <g id="Group-5"></g>
                </g>
                <path d="M214.323887,367.72214 C244.882897,367.72214 269.65587,362.082125 269.65587,355.124814 C269.65587,348.167504 244.882897,342.527489 214.323887,342.527489 C211.50301,342.527489 175.38897,320.175549 165.995951,313.13373 C155.481991,305.251555 149.449368,314.85784 165.995951,325.731055 C182.317927,336.456673 211.669184,349.332684 185.696521,350.925706 C173.294222,351.686395 158.991903,351.336308 158.991903,355.124814 C158.991903,358.137107 167.384419,365.554583 175.131295,367.72214 C185.276911,370.560858 196.995948,367.72214 214.323887,367.72214 Z" id="Path" fill="#2B674F"></path>
                <path d="M67.3872582,125.044238 C71.2420259,115.98519 81.8602884,109.476969 94.3555175,109.476969 C105.130224,109.476969 114.509272,114.316293 119.359492,121.457518 C122.994952,119.298642 127.429474,118.030708 132.215538,118.030708 C144.552849,118.030708 154.554215,126.455915 154.554215,136.848935 C154.554215,147.241955 144.552849,155.667162 132.215538,155.667162 C125.186182,155.667162 118.915147,152.932079 114.820251,148.656291 C109.637711,152.980288 102.384061,155.667162 94.3555175,155.667162 C85.0293976,155.667162 76.7488885,152.041596 71.5457425,146.435894 C68.3134531,149.406455 63.5578497,151.28337 58.2556191,151.28337 C48.5176586,151.28337 40.6234818,144.952498 40.6234818,137.14297 C40.6234818,129.333442 48.5176586,123.002569 58.2556191,123.002569 C61.5983291,123.002569 64.7237833,123.748546 67.3872582,125.044238 Z" id="Combined-Shape" fill="#B8D8AE"></path>
                <g id="Group-2" transform="translate(185.607287, 210.955423)">
                    <g id="Page-1" transform="translate(39.349042, 66.835810) scale(-1, 1) translate(-39.349042, -66.835810) translate(0.476572, 0.000000)">
                        <g id="Group-3" transform="translate(0.000000, 0.430436)" fill="#EFF4F5">
                            <path d="M54.2258664,0.365797468 C48.2574795,0.365062935 41.3499797,2.55029881 33.9707087,8.86214147 C13.3080115,26.5401488 30.2703679,67.5770423 34.7001454,82.2677037 C39.1299229,96.9583651 39.8682192,108.710894 31.7469604,113.852626 C28.8890156,115.662515 26.3957891,116.470502 23.8826287,116.470502 C19.2557261,116.470502 14.5601619,113.729959 7.38318402,109.445427 L0.000221488876,124.136089 C4.40711182,127.546526 14.9883737,132.896865 25.7054821,132.896865 C31.1467255,132.896865 36.6211922,131.51888 41.3448117,127.808754 C55.3724405,116.790758 60.5405143,102.83463 56.1107367,87.4094352 C51.6809592,71.9842407 40.6065154,53.620914 42.8214042,35.9921204 C43.9354932,27.1196954 48.5070236,20.1019665 54.2044558,20.1019665 C55.5274827,20.1019665 56.9103116,20.480251 58.3256255,21.301459 C60.9406708,22.8190043 60.5405143,29.3813227 56.1107367,35.2575873 C55.9246861,35.5043904 55.9224712,35.6035524 56.0479816,35.6035524 C56.5588826,35.6035524 59.1923853,33.9604019 60.1846555,33.9604019 C60.46004,33.9604019 60.6091758,34.0874761 60.5501121,34.4121397 C59.9439709,37.7586724 61.4013677,39.2167205 63.3585911,39.2167205 C64.3287123,39.2167205 65.4213908,38.8590029 66.4468843,38.1957196 C81.2128094,28.6467897 77.5213281,14.6906614 74.5681431,10.283463 C72.6692451,7.45036892 64.9710301,0.366532001 54.2258664,0.365797468" id="Fill-1"></path>
                        </g>
                        <g id="Group-15" transform="translate(0.000000, 0.430436)">
                            <path d="M22.8871839,116.406964 L22.8871839,132.950118 C22.8871839,132.950118 14.7969335,131.400988 11.0744438,130.011986 C5.16807377,127.808387 0,124.135721 0,124.135721 L7.38296253,109.44506 C7.38296253,109.44506 12.9039419,112.444158 15.5042213,113.852258 C18.1045007,115.260358 22.8871839,116.406964 22.8871839,116.406964" id="Fill-4" fill="#010505"></path>
                            <path d="M35.9598265,109.427505 C40.389604,110.162038 48.1107062,121.535548 48.1107062,121.535548 C48.1107062,121.535548 63.2804793,107.115929 55.3718499,85.2055422 C46.5122948,84.4710091 36.2329961,87.8829152 36.2329961,87.8829152 C36.2329961,87.8829152 40.389604,102.082174 35.9598265,109.427505" id="Fill-6" fill="#000000"></path>
                            <path d="M23.9517332,33.6759172 C24.2300709,31.3871122 35.7061479,30.8266635 43.0485041,34.1849487 C41.9853575,44.8848919 45.2545333,58.8498346 46.4358073,60.8653933 C43.8119024,62.4593301 30.8872882,68.6426294 29.0445008,64.5843342 C26.6110763,59.2237119 23.2761921,39.2172347 23.9517332,33.6759172" id="Fill-8" fill="#000000"></path>
                            <g id="Group-12" transform="translate(41.344590, 0.000000)">
                                <mask id="mask-2" fill="white">
                                    <use xlink:href="#path-1"></use>
                                </mask>
                                <g id="Clip-11"></g>
                                <path d="M0.194688722,3.63035624 C2.16298653,4.79606022 5.59089604,6.27100262 8.41930898,11.644112 C10.0465139,14.7357617 10.0679245,20.7141264 10.0679245,20.7141264 C10.0679245,20.7141264 16.2290068,18.4238522 18.500006,23.7484825 C22.8581688,20.8580948 29.4164544,10.0824947 29.3692035,6.35253579 C28.1591359,5.09134251 23.4163208,1.59055791 15.7181057,0.507121631 C7.36576023,-0.668131279 0.194688722,3.63035624 0.194688722,3.63035624" id="Fill-10" fill="#000000" mask="url(#mask-2)"></path>
                            </g>
                            <path d="M59.6321884,27.1920469 C60.8245368,29.8135955 62.5189267,31.691062 65.891464,32.1024005 C69.0661379,32.4887649 72.2814181,32.1398617 73.3814795,32.0509832 C74.4815409,31.9628392 66.2296037,39.4727053 63.24984,39.3838268 C60.2700763,39.2949483 60.3542421,36.1687756 60.4000165,34.524156 C60.4457909,32.880271 56.2234746,36.2150512 55.810767,35.611265 C55.3980594,35.0074788 59.7237371,30.036159 59.6321884,27.1920469" id="Fill-13" fill="#000000"></path>
                        </g>
                    </g>
                    <g id="Page-1" transform="translate(52.381143, 24.974124)">
                        <g id="Stroke-1">
                            <use fill="black" fill-opacity="1" filter="url(#filter-4)" xlink:href="#path-3"></use>
                            <use stroke="#EFF4F5" stroke-width="0.735000038" fill="#EFF4F5" fill-rule="evenodd" xlink:href="#path-3"></use>
                        </g>
                        <path d="M25.1020726,100.891819 C28.7487084,94.0034921 33.0297332,87.3531477 38.5619143,81.7249208 C41.3318596,78.9338379 44.4597501,76.4278951 48.0149722,74.6205455 C51.5525724,72.8197761 55.5736739,71.7691446 59.6035864,72.0213839 C60.6036303,72.1146028 61.6047755,72.2176919 62.582792,72.4403205 C63.5685181,72.6125012 64.5487373,72.9086083 65.4871045,73.291354 C67.3671429,74.0546521 69.0885841,75.2566273 70.4080252,76.8018673 C73.0799486,79.9164745 74.1405678,83.9808176 74.4511542,87.8795601 C74.7606391,91.8177836 74.4280254,95.7549103 73.7705076,99.6108818 C73.0645294,103.45808 72.1195541,107.266893 70.723017,110.914493 C71.8915705,107.194512 72.7264089,103.378021 73.2550664,99.5308233 C73.7903322,95.6891088 74.0348363,91.7892696 73.6306336,87.9563286 C73.2099103,84.1639653 72.1570006,80.3014137 69.660195,77.448916 C68.4277621,76.0297956 66.8439922,74.9451666 65.0961181,74.2498634 C64.2205291,73.9022118 63.315203,73.6335221 62.3702276,73.4777918 C61.4373673,73.2727102 60.4868851,73.1860715 59.5386056,73.1038196 C55.7267643,72.8800942 51.9017066,73.8013161 48.469838,75.5187369 C45.0126378,77.2153204 41.976161,79.6784922 39.1687691,82.3357786 C36.3712895,85.0193856 33.8766867,88.0199368 31.5704181,91.1520911 C29.2322098,94.2666984 27.1418097,97.5633566 25.1020726,100.891819" id="Fill-5" fill="#433D3A"></path>
                        <path d="M28.409262,136.623151 C24.1427228,134.972384 20.4132934,132.247679 17.3445765,128.990432 C14.2724885,125.719899 11.8892045,121.875861 10.139665,117.802642 C8.38787816,113.723887 7.3012984,109.382737 6.88329668,104.990658 C6.44844004,100.597471 6.62934939,96.1721769 7.25185734,91.8166336 C6.72261322,96.1854628 6.63721501,100.603007 7.16308815,104.959657 C7.67098273,109.315201 8.84071337,113.59435 10.6554252,117.583426 C12.466766,121.565858 14.8927491,125.292538 17.9592188,128.422462 C21.0200701,131.540207 24.7011821,134.094411 28.7935539,135.583533 L28.409262,136.623151 Z" id="Fill-7" fill="#EFF4F5"></path>
                        <path d="M60.6121225,84.4713029 C63.988328,89.9122886 63.988328,106.235246 56.1105153,113.852626" id="Stroke-9" stroke="#433D3A" stroke-width="0.735000038"></path>
                        <path d="M65.7083665,89.6130344 C65.7083665,95.0140128 65.7083665,104.735774 62.7551815,107.976361" id="Stroke-11" stroke="#433D3A" stroke-width="0.735000038"></path>
                    </g>
                    <g id="Page-1" transform="translate(97.417214, 0.000000)">
                        <g id="Fill-1">
                            <use fill="black" fill-opacity="1" filter="url(#filter-6)" xlink:href="#path-5"></use>
                            <use fill="#EFF4F5" fill-rule="evenodd" xlink:href="#path-5"></use>
                        </g>
                        <polyline id="Fill-3" fill="#231E1F" points="52.8438192 28.056652 32.2184 48.6486902 11.5929809 28.056652"></polyline>
                        <path d="M47.4296467,15.7014291 L34.280942,15.7014291 L30.6714936,15.7014291 L17.0071534,15.7014291 C12.611361,15.7014291 9.01480351,19.2921658 9.01480351,23.6808439 C9.01480351,28.069522 12.611361,31.6602587 17.0071534,31.6602587 L20.8744195,31.6602587 L20.8744195,38.867472 C20.8744195,44.247142 25.2831029,48.6486902 30.6714936,48.6486902 L34.280942,48.6486902 C39.6693327,48.6486902 44.078016,44.247142 44.078016,38.867472 L44.078016,31.6602587 L47.4296467,31.6602587 C51.8254391,31.6602587 55.4219966,28.069522 55.4219966,23.6808439 C55.4219966,19.2921658 51.8254391,15.7014291 47.4296467,15.7014291" id="Fill-5" fill="#433D3A"></path>
                        <path d="M41.4998387,23.6808439 C41.4998387,20.5534281 44.0393434,18.0180334 47.1718289,18.0180334 C50.3043144,18.0180334 52.8438192,20.5534281 52.8438192,23.6808439 C52.8438192,26.8082597 50.3043144,29.3436544 47.1718289,29.3436544 C44.0393434,29.3436544 41.4998387,26.8082597 41.4998387,23.6808439" id="Fill-7" fill="#EED300"></path>
                        <path d="M45.6249225,23.6808439 C45.6249225,22.8278187 46.3174209,22.136441 47.1718289,22.136441 C48.0262369,22.136441 48.7187354,22.8278187 48.7187354,23.6808439 C48.7187354,24.5338691 48.0262369,25.2252468 47.1718289,25.2252468 C46.3174209,25.2252468 45.6249225,24.5338691 45.6249225,23.6808439" id="Fill-9" fill="#000000"></path>
                        <path d="M11.0773454,23.1660429 C11.0773454,20.0386271 13.6168502,17.5032324 16.7493357,17.5032324 C19.8818212,17.5032324 22.4213259,20.0386271 22.4213259,23.1660429 C22.4213259,26.2934587 19.8818212,28.8288534 16.7493357,28.8288534 C13.6168502,28.8288534 11.0773454,26.2934587 11.0773454,23.1660429" id="Fill-11" fill="#EED300"></path>
                        <path d="M15.2024292,23.1660429 C15.2024292,22.3130178 15.8949277,21.6216401 16.7493357,21.6216401 C17.6037437,21.6216401 18.2962421,22.3130178 18.2962421,23.1660429 C18.2962421,24.0190681 17.6037437,24.7104458 16.7493357,24.7104458 C15.8949277,24.7104458 15.2024292,24.0190681 15.2024292,23.1660429" id="Fill-13" fill="#000000"></path>
                        <polygon id="Fill-15" fill="#EFF4F5" points="32.2184 19.0476353 36.3434839 22.136441 37.3747548 36.5508677 27.0620453 36.5508677 28.0933162 22.136441"></polygon>
                        <path d="M32.2184,30.3732563 L20.8744195,38.867472 C20.8744195,44.247142 25.2831029,48.6486902 30.6714936,48.6486902 L34.280942,48.6486902 C39.6693327,48.6486902 44.078016,44.247142 44.078016,38.867472 L32.7340355,30.3732563" id="Fill-17" fill="#433D3A"></path>
                        <path d="M27.5776807,36.5508677 C27.5776807,37.5804697 27.5776807,39.6396735 29.6402226,40.6692754" id="Stroke-19" stroke="#000000" stroke-width="1.02900004" stroke-linecap="round"></path>
                        <path d="M36.3434839,36.5508677 C36.3434839,37.5804697 36.3434839,39.6396735 34.280942,40.6692754" id="Stroke-21" stroke="#000000" stroke-width="1.02900004" stroke-linecap="round"></path>
                        <path d="M62.6408933,9.26641717 C65.7032524,8.82935116 64.7034352,14.9292277 64.7034352,16.4736305 C64.7034352,18.0180334 62.6408933,23.1660429 60.0627159,24.7104458 C57.4845385,26.2548487 59.0314449,9.78121813 62.6408933,9.26641717" id="Fill-23" fill="#433D3A"></path>
                        <path d="M2.21862477,9.26641717 C-0.843734333,8.82935116 0.156082859,14.9292277 0.156082859,16.4736305 C0.156082859,18.0180334 2.21862477,23.1660429 4.79680217,24.7104458 C7.37497956,26.2548487 5.82807312,9.78121813 2.21862477,9.26641717" id="Fill-25" fill="#433D3A"></path>
                        <path d="M32.2184,39.1248725 L32.2184,44.2728821" id="Stroke-27" stroke="#000000" stroke-width="1.02900004" stroke-linecap="round"></path>
                        <path d="M36.3434839,42.2136782 C36.3434839,43.9192138 34.4964776,45.302484 32.2184,45.302484 C29.9403225,45.302484 28.0933162,43.9192138 28.0933162,42.2136782" id="Stroke-29" stroke="#000000" stroke-width="1.02900004" stroke-linecap="round"></path>
                    </g>
                </g>
                <g id="Baobas" transform="translate(5.603239, 136.771174)">
                    <path d="M111.491989,240.401925 C111.491989,240.401925 114.079925,151.5517 114.774394,133.856728 C115.468864,116.161756 118.593975,90.8336594 119.982914,86.6701365 C121.371852,82.5066137 117.899506,85.2822956 118.94121,78.3430909 L119.982914,71.4038863 C119.982914,71.4038863 115.468864,72.7917272 113.385456,69.3221249 C111.302048,65.8525225 110.260344,67.2403635 110.260344,65.8525225 C110.260344,64.4646816 107.829702,66.1994828 107.482468,64.8116418 C107.135233,63.4238009 104.704591,60.9950793 104.704591,60.9950793 C104.704591,60.9950793 99.4960715,60.9950793 97.7598984,62.03596 C96.0237254,63.0768407 93.9403177,64.8116418 91.85691,64.8116418 C89.7735024,64.8116418 76.9258217,59.2602781 74.4951794,56.137636 C72.0645372,53.0149939 68.2449564,51.9741132 68.2449564,51.9741132 L63.0364372,50.5862722 L64.4253757,45.3818687 L68.592191,46.4227494 C69.9811295,46.7697097 77.2730563,48.8514711 79.7036986,50.239312 C82.1343409,51.6271529 86.9956255,56.137636 89.7735024,56.137636 C92.5513793,56.137636 98.4543677,51.2801927 101.579479,51.2801927 C104.704591,51.2801927 99.1488369,48.5045108 97.0654292,40.8713857 C94.9820215,33.2382606 91.5096754,30.1156185 90.4679716,29.7686582 C89.4262678,29.421698 78.3147602,30.4625787 73.8007102,27.6868968 C69.2866603,24.9112149 68.592191,23.1764138 68.592191,23.1764138 C68.592191,23.1764138 75.1896487,28.033857 77.2730563,28.033857 L88.7317985,28.033857 C88.7317985,28.033857 84.5649832,24.9112149 83.1760447,20.4007319 C81.7871063,15.8902489 85.2594524,22.8294535 86.6483909,24.2172945 C88.0373293,25.6051354 91.5096754,27.6868968 92.8986139,26.9929763 C94.2875523,26.2990559 94.2875523,19.012891 94.2875523,19.012891 L95.6764908,21.0946524 C95.6764908,21.0946524 94.9820215,24.5642547 95.3292562,28.033857 C95.6764908,31.5034594 97.4126638,35.320022 99.8433061,37.7487436 C102.273948,40.1774652 104.704591,43.9940278 107.829702,43.9940278 C110.954814,43.9940278 125.191433,29.0747378 125.191433,29.0747378 L126.580371,21.4416126 L131.094421,23.523374 L132.48336,25.9520956 L126.233137,31.5034594 C126.233137,31.5034594 126.233137,32.8913003 127.96931,32.8913003 L133.177829,32.8913003 L132.830594,33.5852208 L126.233137,33.932181 C126.233137,33.932181 116.510567,42.6061869 116.510567,43.9940278 C116.510567,45.3818687 127.96931,55.0967553 134.219533,53.0149939 C140.469756,50.9332325 136.99741,39.4835448 138.039113,35.6669822 C139.080817,31.8504196 141.164225,28.033857 141.164225,28.033857 C141.164225,28.033857 142.553163,18.3189705 144.983806,17.9720103 C147.414448,17.62505 140.81699,17.9720103 139.775286,13.4615272 C138.733583,8.9510442 143.594867,17.2780898 149.84509,17.9720103 C156.095313,18.6659307 158.525956,16.2372091 160.956598,12.7676068 C163.38724,9.29800443 158.87319,17.2780898 158.525956,17.9720103 C158.178721,18.6659307 167.90129,15.1963284 171.373636,15.1963284 C174.845982,15.1963284 176.582155,15.5432886 176.582155,15.5432886 L176.582155,16.9311296 C176.582155,16.9311296 172.762575,16.2372091 170.679167,16.5841693 C168.595759,16.9311296 162.345536,18.6659307 162.345536,18.6659307 L159.567659,20.0537717 L155.748079,23.523374 L152.275733,30.8095389 C152.275733,30.8095389 147.414448,44.340988 147.761683,47.4636301 C148.108917,50.5862722 153.317436,53.0149939 156.442548,53.0149939 C159.567659,53.0149939 183.874082,45.0349085 191.166009,45.0349085 C198.457936,45.0349085 201.583047,27.6868968 201.583047,27.6868968 L210.263913,28.7277775 C210.263913,28.7277775 206.097097,33.932181 206.791567,34.2791413 C207.486036,34.6261015 215.819667,33.5852208 215.819667,33.5852208 L215.125197,36.7078629 C215.125197,36.7078629 216.166901,36.3609027 209.222209,36.7078629 C202.277517,37.0548231 198.805171,40.5244255 198.805171,42.2592266 C198.805171,43.9940278 201.583047,54.0558746 206.097097,54.4028348 C210.611147,54.749795 223.458828,38.7896243 223.458828,38.7896243 L226.931174,40.8713857 C226.931174,40.8713857 218.944778,45.0349085 218.597543,48.8514711 C218.250309,52.6680336 213.736259,62.03596 211.652851,62.03596 C209.569443,62.03596 196.027294,66.1994828 194.638355,62.03596 C193.249417,57.8724371 183.874082,56.137636 181.790675,56.4845962 C179.707267,56.8315564 164.428944,70.7099658 164.428944,70.7099658 L160.609363,70.7099658 L164.081709,115.120876 L167.396761,240.748886 L111.491989,240.401925 Z" id="Page-1" fill="#1B0042"></path>
                    <path d="M111.247096,29.1988208 C119.431614,29.1988208 129.253036,28.8726372 134.491127,33.1130248 C139.729219,37.3534123 155.116112,44.2032692 160.026823,39.636698 C164.937534,35.0701267 168.538722,31.1559228 153.479209,26.9155352 C138.419696,22.6751476 130.235178,22.0227803 131.21732,20.7180457 C132.199462,19.413311 145.949452,21.6965966 147.258975,18.7609437 C148.568498,15.8252908 148.568498,13.8681888 151.514924,13.8681888 C154.461351,13.8681888 158.389919,16.8038417 162.973249,15.8252908 C167.556579,14.8467398 170.830387,16.1514744 170.830387,16.8038417 C170.830387,17.4562091 172.139909,20.7180457 168.866102,22.0227803 C165.592295,23.3275149 166.901818,27.5679025 171.157767,27.8940862 C175.413717,28.2202699 178.687524,27.2417189 179.014904,29.8511882 C179.342285,32.4606574 181.63395,34.7439431 186.544661,34.7439431 C191.455372,34.7439431 192.110133,31.4821065 193.092275,32.1344738 C194.074417,32.7868411 196.038702,37.679596 199.312509,37.679596 C202.586316,37.679596 205.205362,35.3963104 203.568458,41.5937999 C201.931555,47.7912895 207.169646,42.8985346 208.479169,42.8985346 C209.788692,42.8985346 210.443453,44.2032692 209.461311,46.4865548 C208.479169,48.7698405 210.17893,48.5819587 212.439493,47.5342568 C214.699402,46.4865548 216.663687,48.7698405 217.97321,48.4436568 C219.282732,48.1174731 221.901778,47.1389222 223.211301,48.7698405 C224.520824,50.4007588 227.13987,48.1174731 227.46725,47.4651058 C227.794631,46.8127385 234.342245,48.1174731 237.616052,48.1174731 C240.88986,48.1174731 243.508905,45.8341875 240.88986,41.9199836 C238.270814,38.0057797 240.562479,38.3319633 242.199382,38.3319633 C243.836286,38.3319633 246.127951,38.0057797 244.163667,36.0486777 C242.199382,34.0915757 245.47319,35.722494 245.145809,34.0915757 C244.818428,32.4606574 243.508905,32.1344738 244.818428,30.5035555 C246.127951,28.8726372 243.181525,27.2417189 241.21724,29.5250045 C239.252956,31.8082901 234.014865,33.4392084 231.395819,33.4392084 C228.776773,33.4392084 222.88392,31.1559228 222.229159,29.1988208 C221.574397,27.2417189 230.413677,28.5464535 233.360103,28.2202699 C236.30653,27.8940862 239.252956,25.9369842 230.741057,22.0227803 C222.229159,18.1085764 212.080357,14.5205561 204.877981,16.1514744 C197.675605,17.7823927 195.38394,17.7823927 193.747037,17.1300254 C192.110133,16.4776581 184.907757,10.2801685 180.979189,10.2801685 C177.05062,10.2801685 184.580377,10.2801685 184.252996,7.34451558 C183.925615,4.40886263 181.63395,-1.78862691 166.247057,0.494658709 C150.860163,2.77794433 152.169686,0.168475048 144.639929,0.820842369 C137.110173,1.47320969 131.544701,3.43031165 131.544701,3.43031165 C131.544701,3.43031165 130.235178,0.494658709 124.997087,0.494658709 C119.758995,0.494658709 106.991147,4.08267897 100.443533,6.69214826 C93.8959186,9.30161754 79.1637864,11.5849032 74.9078371,11.9110868 C70.6518878,12.2372705 60.8304663,17.7823927 56.9018978,18.43476 C52.9733292,19.0871274 43.8066692,20.7180457 44.1340499,23.9798823 C44.4614306,27.2417189 47.7352377,30.5035555 52.3185678,30.8297391 C56.9018978,31.1559228 60.1757049,32.4606574 65.4137964,31.1559228 C70.6518878,29.8511882 78.1816442,30.8297391 80.4733093,29.5250045 C82.7649743,28.2202699 88.9852078,25.2846169 88.9852078,25.2846169 C97.1697257,25.2846169 103.062579,29.1988208 111.247096,29.1988208 Z" id="Fill-3" fill="#373867"></path>
                    <path d="M47.236083,24.4667742 C50.1273153,24.4667742 47.236083,19.632428 48.1998271,19.632428 C49.1635712,19.632428 54.9460358,19.632428 56.3916519,19.1489934 C57.8372681,18.6655587 58.3191401,11.897474 64.1016047,11.897474 C69.8840693,11.897474 76.6302779,17.2152549 76.6302779,19.1489934 C76.6302779,21.0827318 79.5215102,27.8508166 81.4489984,27.8508166 C83.3764866,27.8508166 93.4957996,25.4336435 96.8689039,24.9502088 C100.242008,24.4667742 105.060729,28.3342512 105.060729,30.7514243 C105.060729,33.1685974 97.832648,36.5526398 97.350776,39.9366822 C96.8689039,43.3207245 98.7963921,52.0225478 94.4595437,53.9562862 C90.1226953,55.8900247 67.9565811,66.0421518 61.2103724,55.4065901 C54.4641637,44.7710284 53.5004196,48.6385054 53.5004196,48.6385054 C53.5004196,48.6385054 44.8267228,63.6249787 37.5986421,55.4065901 C30.3705613,47.1882015 25.5518409,42.8372899 25.5518409,42.8372899 C25.5518409,42.8372899 12.5412956,52.5059824 11.0956794,51.0556785 C9.6500633,49.6053746 7.24070306,44.7710284 10.1319353,42.8372899 C13.0231676,40.9035514 -0.469249705,43.8041592 0.0126223426,40.4201168 C0.49449439,37.0360744 7.72257511,36.5526398 10.1319353,37.0360744 C12.5412956,37.519509 1.94011053,32.6851628 3.38572668,27.8508166 C4.83134282,23.0164703 25.5518409,23.499905 26.515585,25.4336435 C27.4793291,27.367382 34.2255377,21.5661665 35.1892818,21.5661665 C42.8992346,21.5661665 44.3448507,24.4667742 47.236083,24.4667742 Z" id="Fill-1" fill="#373867"></path>
                </g>
            </g>
        </g>
    </g>
</svg>