<?xml version="1.0" encoding="UTF-8"?>
<svg width="626px" height="495px" viewBox="0 0 626 495" version="1.1" xmlns="http://www.w3.org/2000/svg" xmlns:xlink="http://www.w3.org/1999/xlink">
    <!-- Generator: Sketch 47.1 (45422) - http://www.bohemiancoding.com/sketch -->
    <title>Group 7</title>
    <desc>Created with Sketch.</desc>
    <defs>
        <polygon id="path-1" points="0.277965979 0.434516078 41.9321154 0.434516078 41.9321154 33.9336066 0.277965979 33.9336066"></polygon>
        <path d="M147.608218,191.039099 C155.501706,191.039099 169.709983,192.611437 169.709983,195.756114 C169.709983,196.713668 166.552588,200.473128 158.659101,195.756114 C157.440346,195.028121 168.069717,202.106788 166.552588,203.617805 C163.395193,206.762481 158.569115,198.501416 157.080403,198.90079 C155.536437,199.315887 161.286053,206.762481 160.237798,206.762481 C155.501706,206.762481 155.501706,202.045467 150.765613,202.045467 C146.02952,202.045467 144.450823,205.190143 136.557335,205.190143 C128.537552,205.190143 106.683642,142.979008 103.268919,153.375308 C95.0786368,178.306304 74.5650412,204.866242 48.9396231,205.976312 C12.6295802,207.548651 0,179.246562 0,117.92537 C0,56.6041774 75.7774809,28.3020887 75.7774809,28.3020887 C75.7774809,28.3020887 86.8283635,11.0063678 93.1431536,0 C93.1431536,0 117.612965,25.9435813 128.663848,40.0946257 C139.71473,54.24567 141.293428,87.2647736 139.71473,99.8434797 C138.136033,112.422186 130.242545,134.434921 130.242545,148.585966 C130.242545,162.73701 134.978638,173.743378 142.872125,191.039099 L147.608218,191.039099 Z" id="path-3"></path>
        <filter x="-0.9%" y="-0.9%" width="102.4%" height="102.6%" filterUnits="objectBoundingBox" id="filter-4">
            <feMorphology radius="0.525000036" operator="dilate" in="SourceAlpha" result="shadowSpreadOuter1"></feMorphology>
            <feOffset dx="1" dy="2" in="shadowSpreadOuter1" result="shadowOffsetOuter1"></feOffset>
            <feComposite in="shadowOffsetOuter1" in2="SourceAlpha" operator="out" result="shadowOffsetOuter1"></feComposite>
            <feColorMatrix values="0 0 0 0 0.137254902   0 0 0 0 0.117647059   0 0 0 0 0.121568627  0 0 0 1 0" type="matrix" in="shadowOffsetOuter1"></feColorMatrix>
        </filter>
        <path d="M45.2634847,0 C53.3616442,0 68.0855706,5.77655746 76.1837301,7.21977734 C84.2818896,8.66373281 86.4904785,12.2739893 86.4904785,25.991934 C86.4904785,39.7091432 86.7613988,67.9218116 62.196,76.7238346 C51.8892515,80.4157411 45.999681,86.063571 45.999681,86.063571 C45.999681,86.063571 41.5825031,80.1685842 32.7481472,78.7246287 C23.9137914,77.2814088 5.50888344,63.5347762 5.50888344,42.5970541 C5.50888344,21.659332 4.77268712,12.9955992 9.92606135,9.38607834 C15.0794356,5.77655746 45.2634847,0 45.2634847,0" id="path-5"></path>
        <filter x="-1.2%" y="-1.2%" width="102.5%" height="104.6%" filterUnits="objectBoundingBox" id="filter-6">
            <feOffset dx="0" dy="2" in="SourceAlpha" result="shadowOffsetOuter1"></feOffset>
            <feColorMatrix values="0 0 0 0 0.137254902   0 0 0 0 0.117647059   0 0 0 0 0.121568627  0 0 0 1 0" type="matrix" in="shadowOffsetOuter1"></feColorMatrix>
        </filter>
    </defs>
    <g id="✅-Maquettes" stroke="none" stroke-width="1" fill="none" fill-rule="evenodd">
        <g id="Exercice-01" transform="translate(0.000000, -31.000000)">
            <g id="Group-6" transform="translate(-111.000000, -63.000000)">
                <g id="Group-7">
                    <g id="Group" transform="translate(68.000000, 0.000000)" fill="#1B0042" opacity="0.0343070652">
                        <path d="M399.434774,561.642829 C486.692075,383.25136 545.218448,647.642341 648.180598,538.744066 C751.142748,429.845791 423.724254,94.0140257 291.785395,200.662466 C159.846537,307.310905 129.886603,441.752219 163.269073,535.942804 C196.651543,630.13339 312.177473,740.034299 399.434774,561.642829 Z" id="Oval-5" transform="translate(409.301935, 418.430522) rotate(-179.000000) translate(-409.301935, -418.430522) "></path>
                        <path d="M257.075221,345.574842 C344.332522,167.183373 473.876777,436.052931 473.876777,337.193961 C473.876777,238.334991 294.885103,15.8031761 225.460495,148.729294 C156.035887,281.655411 40.2736657,199.718178 40.2736657,298.577148 C40.2736657,397.436118 169.817921,523.966312 257.075221,345.574842 Z" id="Oval-5" transform="translate(257.075221, 271.362769) rotate(56.000000) translate(-257.075221, -271.362769) "></path>
                    </g>
                    <g id="Group-4" transform="translate(0.000000, 63.000000)">
                        <path d="M256.942716,601.772124 C320.254361,601.772124 457.382205,639.637501 474.800817,547.700576 C500.952613,409.669155 357.58797,489.691957 377.507655,404.421194 C409.521063,267.380492 276.165943,160.30072 173.643304,207.19596 C71.1206644,254.091199 83.7676218,332.955066 83.7676218,428.59703 C83.7676218,524.238993 161.300753,601.772124 256.942716,601.772124 Z" id="Oval-2" fill="#59B38F"></path>
                        <path d="M201.11954,373.798579 C295.567502,323.980658 346.387299,405.824469 371.353223,337.814278 C395.012041,273.364802 257.093517,285.338538 294.237553,221.375108 C347.64173,129.411104 215.966549,32.8293037 136.783458,69.0487181 C57.6003677,105.268132 67.368212,166.178433 67.368212,240.047251 C67.368212,313.91607 133.829734,409.291544 201.11954,373.798579 Z" id="Oval-2" fill="#407781" transform="translate(220.543556, 221.350131) rotate(320.000000) translate(-220.543556, -221.350131) "></path>
                        <g id="Page-1" transform="translate(0.000000, 139.000000)">
                            <g id="Group-5"></g>
                        </g>
                        <path d="M306,524 C349.630495,524 385,515.941125 385,506 C385,496.058875 349.630495,488 306,488 C301.972506,488 250.410842,456.061878 237,446 C221.988739,434.73736 213.375687,448.463538 237,464 C260.30363,479.325565 302.20976,497.723772 265.127402,500 C247.420074,501.08693 227,500.5867 227,506 C227,510.304189 238.982379,520.902833 250.042947,524 C264.528307,528.056173 281.260111,524 306,524 Z" id="Path" fill="#2B674F"></path>
                        <path d="M96.2118658,177.243677 C101.715494,164.299433 116.875672,155 134.715681,155 C150.099221,155 163.490117,161.914789 170.414997,172.118705 C175.60551,169.033941 181.936878,167.222222 188.770161,167.222222 C206.384703,167.222222 220.664111,179.260788 220.664111,194.111111 C220.664111,208.961434 206.384703,221 188.770161,221 C178.734029,221 169.780585,217.091909 163.934116,210.982344 C156.534767,217.160793 146.178399,221 134.715681,221 C121.400354,221 109.577893,215.81952 102.149124,207.809675 C97.5342366,212.054234 90.7444444,214.736111 83.1742076,214.736111 C69.2708767,214.736111 58,205.690087 58,194.53125 C58,183.372413 69.2708767,174.326389 83.1742076,174.326389 C87.9467473,174.326389 92.409101,175.392295 96.2118658,177.243677 Z" id="Combined-Shape" fill="#B8D8AE"></path>
                        <g id="Group-2" transform="translate(265.000000, 300.000000)">
                            <g id="Page-1" transform="translate(56.180424, 95.500000) scale(-1, 1) translate(-56.180424, -95.500000) translate(0.680424, 0.000000)">
                                <g id="Group-3" transform="translate(0.000000, 0.615040)" fill="#EFF4F5">
                                    <path d="M77.4207457,0.52267876 C68.8994071,0.521629205 59.0372543,3.64405754 48.5015321,12.66289 C19.0004557,37.9225481 43.2183865,96.5591284 49.5429822,117.550243 C55.8675778,138.541358 56.9216771,155.33425 45.3265851,162.68114 C41.2461668,165.267246 37.6864735,166.421757 34.0983196,166.421757 C27.4922794,166.421757 20.788208,162.505864 10.541309,156.383806 L0.000316229782,177.374921 C6.2922348,182.248008 21.3995856,189.892972 36.7008907,189.892972 C44.4696023,189.892972 52.2857485,187.924005 59.0298756,182.622699 C79.0577619,166.879363 86.4364568,146.937804 80.1118611,124.897133 C73.7872655,102.856463 57.9757764,76.6175693 61.1380742,51.4282314 C62.72871,38.7506476 69.2556927,28.723192 77.3901768,28.723192 C79.2791227,28.723192 81.2534506,29.2637132 83.274159,30.4371166 C87.0077786,32.6054987 86.4364568,41.9822297 80.1118611,50.3786757 C79.8462281,50.7313264 79.8430658,50.8730164 80.0222627,50.8730164 C80.7516994,50.8730164 84.5116715,48.5251602 85.9283809,48.5251602 C86.32156,48.5251602 86.534488,48.7067334 86.4501601,49.170637 C85.5847446,53.952413 87.6655365,56.0357812 90.4599537,56.0357812 C91.8450402,56.0357812 93.4051071,55.5246475 94.869251,54.5768987 C115.951236,40.932674 110.68074,20.9911149 106.464343,14.6937804 C103.7532,10.6456439 92.7621065,0.523728316 77.4207457,0.52267876" id="Fill-1"></path>
                                </g>
                                <g id="Group-15" transform="translate(0.000000, 0.615040)">
                                    <path d="M32.6770775,166.33097 L32.6770775,189.969065 C32.6770775,189.969065 21.1262577,187.755552 15.8114891,185.770842 C7.37869492,182.622175 0,177.374396 0,177.374396 L10.5409927,156.383281 C10.5409927,156.383281 18.4235471,160.668617 22.1360848,162.680615 C25.8486224,164.692614 32.6770775,166.33097 32.6770775,166.33097" id="Fill-4" fill="#010505"></path>
                                    <path d="M51.3414863,156.358197 C57.666082,157.407752 68.6898522,173.659074 68.6898522,173.659074 C68.6898522,173.659074 90.34843,153.055245 79.0569186,121.748046 C66.4077273,120.698491 51.7315031,125.573677 51.7315031,125.573677 C51.7315031,125.573677 57.666082,145.862639 51.3414863,156.358197" id="Fill-6" fill="#000000"></path>
                                    <path d="M34.1969833,48.1186673 C34.5943787,44.8482516 50.9792978,44.0474406 61.4623151,48.8460094 C59.9444122,64.134888 64.6119637,84.0890418 66.2985226,86.9690227 C62.5522538,89.2465587 44.0991919,98.0817189 41.4681601,92.2829234 C37.9938489,84.6232656 33.2324824,56.0365158 34.1969833,48.1186673" id="Fill-8" fill="#000000"></path>
                                    <g id="Group-12" transform="translate(59.029559, 0.000000)">
                                        <mask id="mask-2" fill="white">
                                            <use xlink:href="#path-1"></use>
                                        </mask>
                                        <g id="Clip-11"></g>
                                        <path d="M0.277965979,5.18732431 C3.08819465,6.85296927 7.98237758,8.96047721 12.0206319,16.6379775 C14.3438667,21.0555576 14.3744356,29.5978918 14.3744356,29.5978918 C14.3744356,29.5978918 23.170894,26.325377 26.4133034,33.9336066 C32.6356514,29.8036047 41.9992153,14.406622 41.9317529,9.07697789 C40.2040842,7.27489068 33.4325505,2.27270801 22.4414573,0.724613285 C10.5164322,-0.954675904 0.277965979,5.18732431 0.277965979,5.18732431" id="Fill-10" fill="#000000" mask="url(#mask-2)"></path>
                                    </g>
                                    <path d="M85.1395984,38.8540289 C86.8419688,42.5998933 89.2611266,45.2825578 94.0762521,45.870309 C98.608879,46.4223753 103.199481,45.9238363 104.770089,45.7968401 C106.340697,45.6708934 94.5590296,56.4015513 90.3046849,56.2745551 C86.0503402,56.1475588 86.1705075,51.6806496 86.2358617,49.3306943 C86.3012158,46.9817885 80.2728221,51.7467716 79.6835806,50.8840368 C79.0943391,50.021302 85.2703067,42.9179087 85.1395984,38.8540289" id="Fill-13" fill="#000000"></path>
                                </g>
                            </g>
                            <g id="Page-1" transform="translate(74.786949, 35.684895)">
                                <g id="Stroke-1">
                                    <use fill="black" fill-opacity="1" filter="url(#filter-4)" xlink:href="#path-3"></use>
                                    <use stroke="#EFF4F5" stroke-width="1.05000007" fill="#EFF4F5" fill-rule="evenodd" xlink:href="#path-3"></use>
                                </g>
                                <path d="M35.8393753,144.161771 C41.0458438,134.319215 47.1580584,124.816706 55.0566059,116.774674 C59.0113834,112.786567 63.4772155,109.205888 68.5531684,106.623412 C73.6039617,104.050338 79.345072,102.549117 85.0987621,102.909536 C86.5265704,103.042734 87.9559512,103.190035 89.35231,103.508144 C90.7596761,103.754168 92.1591798,104.177268 93.4989295,104.724164 C96.1831462,105.814821 98.6409264,107.532293 100.524753,109.740248 C104.33958,114.190631 105.853874,119.998069 106.297313,125.568883 C106.739178,131.196111 106.264291,136.821772 105.325522,142.331472 C104.317565,147.828636 102.968381,153.270954 100.974481,158.482917 C102.642878,153.16753 103.834815,147.714243 104.589604,142.217079 C105.353827,136.72775 105.702917,131.155368 105.125818,125.678576 C104.525132,120.259764 103.021845,114.740661 99.4570415,110.664799 C97.6974407,108.637054 95.4362201,107.087255 92.9407005,106.093754 C91.690582,105.597003 90.3980066,105.213079 89.0488221,104.99056 C87.7169348,104.697524 86.3598879,104.573729 85.005986,104.456201 C79.5636462,104.136525 74.1024366,105.452836 69.2026011,107.906815 C64.2665985,110.331021 59.9312819,113.850584 55.9230403,117.647514 C51.9289509,121.482052 48.3672925,125.769464 45.0745276,130.24492 C41.7361608,134.695304 38.7516011,139.405815 35.8393753,144.161771" id="Fill-5" fill="#433D3A"></path>
                                <path d="M40.5612006,195.217368 C34.4696679,192.85863 29.1449912,188.965367 24.7636439,184.311169 C20.3774836,179.637988 16.9747601,174.145339 14.4768627,168.325219 C11.9757567,162.497189 10.4243971,156.294229 9.82759699,150.018498 C9.20673231,143.741185 9.46502485,137.417994 10.3538079,131.194468 C9.59818188,137.436978 9.47625496,143.749095 10.2270681,149.974202 C10.9522123,156.197728 12.6222902,162.312097 15.2132371,168.011986 C17.7993711,173.702383 21.263058,179.027342 25.6411968,183.499611 C30.011314,187.954479 35.2670057,191.604116 41.1098717,193.731885 L40.5612006,195.217368 Z" id="Fill-7" fill="#EFF4F5"></path>
                                <path d="M86.5386952,120.698911 C91.3590579,128.473398 91.3590579,151.796858 80.1115449,162.68114" id="Stroke-9" stroke="#433D3A" stroke-width="1.05000007"></path>
                                <path d="M93.8148355,128.045801 C93.8148355,135.763122 93.8148355,149.654301 89.5984384,154.284694" id="Stroke-11" stroke="#433D3A" stroke-width="1.05000007"></path>
                            </g>
                            <g id="Page-1" transform="translate(139.087005, 0.000000)">
                                <g id="Fill-1">
                                    <use fill="black" fill-opacity="1" filter="url(#filter-6)" xlink:href="#path-5"></use>
                                    <use fill="#EFF4F5" fill-rule="evenodd" xlink:href="#path-5"></use>
                                </g>
                                <polyline id="Fill-3" fill="#231E1F" points="75.4475337 40.0894412 45.999681 69.5128842 16.5518282 40.0894412"></polyline>
                                <path d="M67.7174724,22.4353753 L48.9444663,22.4353753 L43.791092,22.4353753 L24.2818896,22.4353753 C18.005816,22.4353753 12.8708466,27.5660882 12.8708466,33.8369595 C12.8708466,40.1078308 18.005816,45.2385437 24.2818896,45.2385437 L29.803362,45.2385437 L29.803362,55.5367488 C29.803362,63.2236233 36.0978405,69.5128842 43.791092,69.5128842 L48.9444663,69.5128842 C56.6377178,69.5128842 62.9321963,63.2236233 62.9321963,55.5367488 L62.9321963,45.2385437 L67.7174724,45.2385437 C73.993546,45.2385437 79.1285153,40.1078308 79.1285153,33.8369595 C79.1285153,27.5660882 73.993546,22.4353753 67.7174724,22.4353753" id="Fill-5" fill="#433D3A"></path>
                                <path d="M59.2512147,33.8369595 C59.2512147,29.3682741 62.8769816,25.7455127 67.3493742,25.7455127 C71.8217669,25.7455127 75.4475337,29.3682741 75.4475337,33.8369595 C75.4475337,38.3056449 71.8217669,41.9284064 67.3493742,41.9284064 C62.8769816,41.9284064 59.2512147,38.3056449 59.2512147,33.8369595" id="Fill-7" fill="#EED300"></path>
                                <path d="M65.1407853,33.8369595 C65.1407853,32.6180934 66.1294969,31.6302013 67.3493742,31.6302013 C68.5692515,31.6302013 69.5579632,32.6180934 69.5579632,33.8369595 C69.5579632,35.0558257 68.5692515,36.0437178 67.3493742,36.0437178 C66.1294969,36.0437178 65.1407853,35.0558257 65.1407853,33.8369595" id="Fill-9" fill="#000000"></path>
                                <path d="M15.8156319,33.1013735 C15.8156319,28.632688 19.4413988,25.0099266 23.9137914,25.0099266 C28.386184,25.0099266 32.0119509,28.632688 32.0119509,33.1013735 C32.0119509,37.5700589 28.386184,41.1928203 23.9137914,41.1928203 C19.4413988,41.1928203 15.8156319,37.5700589 15.8156319,33.1013735" id="Fill-11" fill="#EED300"></path>
                                <path d="M21.7052025,33.1013735 C21.7052025,31.8825073 22.6939141,30.8946152 23.9137914,30.8946152 C25.1336687,30.8946152 26.1223804,31.8825073 26.1223804,33.1013735 C26.1223804,34.3202396 25.1336687,35.3081317 23.9137914,35.3081317 C22.6939141,35.3081317 21.7052025,34.3202396 21.7052025,33.1013735" id="Fill-13" fill="#000000"></path>
                                <polygon id="Fill-15" fill="#EFF4F5" points="45.999681 27.2166848 51.8892515 31.6302013 53.3616442 52.2266114 38.6377178 52.2266114 40.1101104 31.6302013"></polygon>
                                <path d="M45.999681,43.3995785 L29.803362,55.5367488 C29.803362,63.2236233 36.0978405,69.5128842 43.791092,69.5128842 L48.9444663,69.5128842 C56.6377178,69.5128842 62.9321963,63.2236233 62.9321963,55.5367488 L46.7358773,43.3995785" id="Fill-17" fill="#433D3A"></path>
                                <path d="M39.3739141,52.2266114 C39.3739141,53.6977836 39.3739141,56.6401279 42.3186994,58.1113001" id="Stroke-19" stroke="#000000" stroke-width="1.47000008" stroke-linecap="round"></path>
                                <path d="M51.8892515,52.2266114 C51.8892515,53.6977836 51.8892515,56.6401279 48.9444663,58.1113001" id="Stroke-21" stroke="#000000" stroke-width="1.47000008" stroke-linecap="round"></path>
                                <path d="M89.4352638,13.2405494 C93.8075337,12.6160368 92.3800491,21.3319962 92.3800491,23.5387545 C92.3800491,25.7455127 89.4352638,33.1013735 85.7542822,35.3081317 C82.0733006,37.5148899 84.2818896,13.9761355 89.4352638,13.2405494" id="Fill-23" fill="#433D3A"></path>
                                <path d="M3.1676319,13.2405494 C-1.20463804,12.6160368 0.222846626,21.3319962 0.222846626,23.5387545 C0.222846626,25.7455127 3.1676319,33.1013735 6.8486135,35.3081317 C10.5295951,37.5148899 8.32100613,13.9761355 3.1676319,13.2405494" id="Fill-25" fill="#433D3A"></path>
                                <path d="M45.999681,55.9045418 L45.999681,63.2604026" id="Stroke-27" stroke="#000000" stroke-width="1.47000008" stroke-linecap="round"></path>
                                <path d="M51.8892515,60.3180583 C51.8892515,62.755055 49.2521963,64.7315748 45.999681,64.7315748 C42.7471656,64.7315748 40.1101104,62.755055 40.1101104,60.3180583" id="Stroke-29" stroke="#000000" stroke-width="1.47000008" stroke-linecap="round"></path>
                            </g>
                        </g>
                        <g id="Baobas" transform="translate(8.000000, 194.000000)">
                            <path d="M159.182203,343.504237 C159.182203,343.504237 162.877119,216.548395 163.868644,191.264497 C164.860169,165.980599 169.322034,129.789921 171.305085,123.840768 C173.288136,117.891616 168.330508,121.857718 169.817797,111.942463 L171.305085,102.027209 C171.305085,102.027209 164.860169,104.01026 161.885593,99.0526328 C158.911017,94.0950056 157.423729,96.0780565 157.423729,94.0950056 C157.423729,92.1119548 153.95339,94.5907684 153.457627,92.6077175 C152.961864,90.6246667 149.491525,87.1543277 149.491525,87.1543277 C149.491525,87.1543277 142.055085,87.1543277 139.576271,88.6416158 C137.097458,90.1289039 134.122881,92.6077175 131.148305,92.6077175 C128.173729,92.6077175 109.830508,84.6755141 106.360169,80.2136497 C102.889831,75.7517853 97.4364407,74.2644972 97.4364407,74.2644972 L90,72.2814463 L91.9830508,64.8450056 L97.9322034,66.3322938 C99.9152542,66.8280565 110.326271,69.8026328 113.79661,71.7856836 C117.266949,73.7687345 124.207627,80.2136497 128.173729,80.2136497 C132.139831,80.2136497 140.567797,73.2729717 145.029661,73.2729717 C149.491525,73.2729717 141.559322,69.3068701 138.584746,58.4000904 C135.610169,47.4933107 130.652542,43.0314463 129.165254,42.5356836 C127.677966,42.0399209 111.813559,43.527209 105.368644,39.5611073 C98.9237288,35.5950056 97.9322034,33.1161921 97.9322034,33.1161921 C97.9322034,33.1161921 107.351695,40.0568701 110.326271,40.0568701 L126.686441,40.0568701 C126.686441,40.0568701 120.737288,35.5950056 118.754237,29.1500904 C116.771186,22.7051751 121.728814,32.6204294 123.711864,34.6034802 C125.694915,36.5865311 130.652542,39.5611073 132.635593,38.5695819 C134.618644,37.5780565 134.618644,27.1670395 134.618644,27.1670395 L136.601695,30.1416158 C136.601695,30.1416158 135.610169,35.0992429 136.105932,40.0568701 C136.601695,45.0144972 139.080508,50.467887 142.550847,53.938226 C146.021186,57.408565 149.491525,62.8619548 153.95339,62.8619548 C158.415254,62.8619548 178.741525,41.5441582 178.741525,41.5441582 L180.724576,30.6373785 L187.169492,33.6119548 L189.152542,37.0822938 L180.228814,45.0144972 C180.228814,45.0144972 180.228814,46.997548 182.707627,46.997548 L190.144068,46.997548 L189.648305,47.9890734 L180.228814,48.4848362 C180.228814,48.4848362 166.347458,60.8789039 166.347458,62.8619548 C166.347458,64.8450056 182.707627,78.7263616 191.631356,75.7517853 C200.555085,72.777209 195.597458,56.4170395 197.084746,50.9636497 C198.572034,45.5102599 201.54661,40.0568701 201.54661,40.0568701 C201.54661,40.0568701 203.529661,26.1755141 207,25.6797514 C210.470339,25.1839887 201.050847,25.6797514 199.563559,19.2348362 C198.076271,12.7899209 205.016949,24.688226 213.940678,25.6797514 C222.864407,26.6712768 226.334746,23.2009378 229.805085,18.2433107 C233.275424,13.2856836 226.830508,24.688226 226.334746,25.6797514 C225.838983,26.6712768 239.720339,21.7136497 244.677966,21.7136497 C249.635593,21.7136497 252.114407,22.2094124 252.114407,22.2094124 L252.114407,24.1924633 C252.114407,24.1924633 246.661017,23.2009378 243.686441,23.6967006 C240.711864,24.1924633 231.788136,26.6712768 231.788136,26.6712768 L227.822034,28.6543277 L222.368644,33.6119548 L217.411017,44.0229717 C217.411017,44.0229717 210.470339,63.3577175 210.966102,67.8195819 C211.461864,72.2814463 218.898305,75.7517853 223.360169,75.7517853 C227.822034,75.7517853 262.525424,64.3492429 272.936441,64.3492429 C283.347458,64.3492429 287.809322,39.5611073 287.809322,39.5611073 L300.20339,41.0483955 C300.20339,41.0483955 294.254237,48.4848362 295.245763,48.9805989 C296.237288,49.4763616 308.135593,47.9890734 308.135593,47.9890734 L307.144068,52.4509378 C307.144068,52.4509378 308.631356,51.9551751 298.716102,52.4509378 C288.800847,52.9467006 283.84322,57.9043277 283.84322,60.3831412 C283.84322,62.8619548 287.809322,77.2390734 294.254237,77.7348362 C300.699153,78.2305989 319.042373,55.4255141 319.042373,55.4255141 L324,58.4000904 C324,58.4000904 312.597458,64.3492429 312.101695,69.8026328 C311.605932,75.2560226 305.161017,88.6416158 302.186441,88.6416158 C299.211864,88.6416158 279.877119,94.5907684 277.894068,88.6416158 C275.911017,82.6924633 262.525424,80.2136497 259.550847,80.7094124 C256.576271,81.2051751 234.762712,101.035684 234.762712,101.035684 L229.309322,101.035684 L234.266949,164.493311 L239,344 L159.182203,343.504237 Z" id="Page-1" fill="#1B0042"></path>
                            <path d="M158.83256,41.7214574 C170.51797,41.7214574 184.540462,41.2553818 192.019124,47.3143645 C199.497786,53.3733472 221.466357,63.1609346 228.477603,56.6358763 C235.488849,50.110818 240.630429,44.5179109 219.129275,38.4589282 C197.628121,32.3999455 185.942711,31.4677944 187.34496,29.603492 C188.747209,27.7391896 208.378698,31.0017188 210.248363,26.8070384 C212.118029,22.6123581 212.118029,19.8159046 216.324776,19.8159046 C220.531524,19.8159046 226.140521,24.0105849 232.68435,22.6123581 C239.22818,21.2141314 243.902344,23.0784337 243.902344,24.0105849 C243.902344,24.9427361 245.772009,29.603492 241.097846,31.4677944 C236.423682,33.3320967 238.293347,39.3910794 244.36976,39.857155 C250.446173,40.3232306 255.120337,38.9250038 255.587754,42.6536086 C256.05517,46.3822133 259.327085,49.6447424 266.338331,49.6447424 C273.349577,49.6447424 274.28441,44.9839865 275.686659,45.9161377 C277.088908,46.8482889 279.893406,53.8394227 284.56757,53.8394227 C289.241734,53.8394227 292.981066,50.5768936 290.643984,59.4323298 C288.306902,68.2877661 295.785564,61.2966322 297.65523,61.2966322 C299.524895,61.2966322 300.459728,63.1609346 299.057479,66.4234637 C297.65523,69.6859928 300.082055,69.4175333 303.309566,67.9204985 C306.536141,66.4234637 309.340639,69.6859928 311.210305,69.2199173 C313.079971,68.7538417 316.819302,67.3556149 318.688967,69.6859928 C320.558633,72.0163708 324.297964,68.7538417 324.765381,67.8216905 C325.232797,66.8895393 334.581125,68.7538417 339.255289,68.7538417 C343.929453,68.7538417 347.668784,65.4913125 343.929453,59.8984054 C340.190122,54.3054983 343.462036,54.7715739 345.799118,54.7715739 C348.1362,54.7715739 351.408115,54.3054983 348.603617,51.5090448 C345.799118,48.7125912 350.473282,51.0429692 350.005866,48.7125912 C349.53845,46.3822133 347.668784,45.9161377 349.53845,43.5857597 C351.408115,41.2553818 347.201368,38.9250038 344.396869,42.187533 C341.592371,45.4500621 334.113708,47.7804401 330.374377,47.7804401 C326.635046,47.7804401 318.221551,44.5179109 317.286718,41.7214574 C316.351885,38.9250038 328.972128,40.7893062 333.178876,40.3232306 C337.385623,39.857155 341.592371,37.0607015 329.439544,31.4677944 C317.286718,25.8748873 302.79681,20.7480558 292.513649,23.0784337 C282.230488,25.4088117 278.958574,25.4088117 276.621492,24.4766605 C274.28441,23.5445093 264.001249,14.6890731 258.392252,14.6890731 C252.783255,14.6890731 263.533833,14.6890731 263.066416,10.4943927 C262.599,6.29971243 259.327085,-2.55572381 237.358514,0.706805331 C215.389944,3.96933447 217.259609,0.24072974 206.509032,1.17288092 C195.758455,2.10503211 187.812376,4.90148565 187.812376,4.90148565 C187.812376,4.90148565 185.942711,0.706805331 178.464048,0.706805331 C170.985386,0.706805331 152.756147,5.83363684 143.407819,9.56224157 C134.059491,13.2908463 113.025753,16.5533754 106.94934,17.019451 C100.872927,17.4855266 86.8504346,25.4088117 81.2414379,26.3409629 C75.6324411,27.273114 62.544782,29.603492 63.0121984,34.2642479 C63.4796148,38.9250038 68.1537787,43.5857597 74.6976083,44.0518353 C81.2414379,44.5179109 85.9156018,46.3822133 93.3942642,44.5179109 C100.872927,42.6536086 111.623504,44.0518353 114.895418,42.187533 C118.167333,40.3232306 127.048245,36.1285503 127.048245,36.1285503 C138.733655,36.1285503 147.14715,41.7214574 158.83256,41.7214574 Z" id="Fill-3" fill="#373867"></path>
                            <path d="M67.4411127,34.9599555 C71.5690571,34.9599555 67.4411127,28.0522803 68.8170942,28.0522803 C70.1930757,28.0522803 78.4489644,28.0522803 80.5129366,27.3615128 C82.5769087,26.6707453 83.2648995,17 91.5207882,17 C99.7766769,17 109.408547,24.5984427 109.408547,27.3615128 C109.408547,30.1245829 113.536491,39.7953281 116.288454,39.7953281 C119.040417,39.7953281 133.488223,36.3414905 138.304158,35.650723 C143.120093,34.9599555 150,40.4860957 150,43.9399333 C150,47.3937709 139.680139,52.2291435 138.992148,57.0645161 C138.304158,61.8998888 141.056121,74.3337041 134.864204,77.0967742 C128.672287,79.8598443 97.024714,94.3659622 87.3928438,79.1690768 C77.7609737,63.9721913 76.3849922,69.4983315 76.3849922,69.4983315 C76.3849922,69.4983315 64.0011591,90.9121246 53.6812982,79.1690768 C43.3614373,67.4260289 36.48153,61.2091212 36.48153,61.2091212 C36.48153,61.2091212 17.9057804,75.0244716 15.8418082,72.9521691 C13.777836,70.8798665 10.3378824,63.9721913 14.4658268,61.2091212 C18.5937711,58.4460512 -0.669969232,62.5906563 0.0180214949,57.7552836 C0.706012222,52.919911 11.0258731,52.2291435 14.4658268,52.919911 C17.9057804,53.6106785 2.7699844,46.7030033 4.83395658,39.7953281 C6.89792877,32.8876529 36.48153,33.5784205 37.8575115,36.3414905 C39.2334929,39.1045606 48.8653631,30.8153504 50.2413446,30.8153504 C61.2491962,30.8153504 63.3131684,34.9599555 67.4411127,34.9599555 Z" id="Fill-1" fill="#373867"></path>
                        </g>
                    </g>
                </g>
            </g>
        </g>
    </g>
</svg>