<?xml version="1.0" encoding="UTF-8"?>
<svg width="247px" height="332px" viewBox="0 0 247 332" version="1.1" xmlns="http://www.w3.org/2000/svg" xmlns:xlink="http://www.w3.org/1999/xlink">
    <!-- Generator: Sketch 49.3 (51167) - http://www.bohemiancoding.com/sketch -->
    <title>Baobas</title>
    <desc>Created with Sketch.</desc>
    <defs></defs>
    <g id="✅-Maquettes" stroke="none" stroke-width="1" fill="none" fill-rule="evenodd">
        <g id="Exercice-01" transform="translate(0.000000, -194.000000)">
            <g id="Group-4" transform="translate(-111.000000, 0.000000)">
                <g id="Baobas" transform="translate(8.000000, 194.000000)">
                    <path d="M159.182203,343.504237 C159.182203,343.504237 162.877119,216.548395 163.868644,191.264497 C164.860169,165.980599 169.322034,129.789921 171.305085,123.840768 C173.288136,117.891616 168.330508,121.857718 169.817797,111.942463 L171.305085,102.027209 C171.305085,102.027209 164.860169,104.01026 161.885593,99.0526328 C158.911017,94.0950056 157.423729,96.0780565 157.423729,94.0950056 C157.423729,92.1119548 153.95339,94.5907684 153.457627,92.6077175 C152.961864,90.6246667 149.491525,87.1543277 149.491525,87.1543277 C149.491525,87.1543277 142.055085,87.1543277 139.576271,88.6416158 C137.097458,90.1289039 134.122881,92.6077175 131.148305,92.6077175 C128.173729,92.6077175 109.830508,84.6755141 106.360169,80.2136497 C102.889831,75.7517853 97.4364407,74.2644972 97.4364407,74.2644972 L90,72.2814463 L91.9830508,64.8450056 L97.9322034,66.3322938 C99.9152542,66.8280565 110.326271,69.8026328 113.79661,71.7856836 C117.266949,73.7687345 124.207627,80.2136497 128.173729,80.2136497 C132.139831,80.2136497 140.567797,73.2729717 145.029661,73.2729717 C149.491525,73.2729717 141.559322,69.3068701 138.584746,58.4000904 C135.610169,47.4933107 130.652542,43.0314463 129.165254,42.5356836 C127.677966,42.0399209 111.813559,43.527209 105.368644,39.5611073 C98.9237288,35.5950056 97.9322034,33.1161921 97.9322034,33.1161921 C97.9322034,33.1161921 107.351695,40.0568701 110.326271,40.0568701 L126.686441,40.0568701 C126.686441,40.0568701 120.737288,35.5950056 118.754237,29.1500904 C116.771186,22.7051751 121.728814,32.6204294 123.711864,34.6034802 C125.694915,36.5865311 130.652542,39.5611073 132.635593,38.5695819 C134.618644,37.5780565 134.618644,27.1670395 134.618644,27.1670395 L136.601695,30.1416158 C136.601695,30.1416158 135.610169,35.0992429 136.105932,40.0568701 C136.601695,45.0144972 139.080508,50.467887 142.550847,53.938226 C146.021186,57.408565 149.491525,62.8619548 153.95339,62.8619548 C158.415254,62.8619548 178.741525,41.5441582 178.741525,41.5441582 L180.724576,30.6373785 L187.169492,33.6119548 L189.152542,37.0822938 L180.228814,45.0144972 C180.228814,45.0144972 180.228814,46.997548 182.707627,46.997548 L190.144068,46.997548 L189.648305,47.9890734 L180.228814,48.4848362 C180.228814,48.4848362 166.347458,60.8789039 166.347458,62.8619548 C166.347458,64.8450056 182.707627,78.7263616 191.631356,75.7517853 C200.555085,72.777209 195.597458,56.4170395 197.084746,50.9636497 C198.572034,45.5102599 201.54661,40.0568701 201.54661,40.0568701 C201.54661,40.0568701 203.529661,26.1755141 207,25.6797514 C210.470339,25.1839887 201.050847,25.6797514 199.563559,19.2348362 C198.076271,12.7899209 205.016949,24.688226 213.940678,25.6797514 C222.864407,26.6712768 226.334746,23.2009378 229.805085,18.2433107 C233.275424,13.2856836 226.830508,24.688226 226.334746,25.6797514 C225.838983,26.6712768 239.720339,21.7136497 244.677966,21.7136497 C249.635593,21.7136497 252.114407,22.2094124 252.114407,22.2094124 L252.114407,24.1924633 C252.114407,24.1924633 246.661017,23.2009378 243.686441,23.6967006 C240.711864,24.1924633 231.788136,26.6712768 231.788136,26.6712768 L227.822034,28.6543277 L222.368644,33.6119548 L217.411017,44.0229717 C217.411017,44.0229717 210.470339,63.3577175 210.966102,67.8195819 C211.461864,72.2814463 218.898305,75.7517853 223.360169,75.7517853 C227.822034,75.7517853 262.525424,64.3492429 272.936441,64.3492429 C283.347458,64.3492429 287.809322,39.5611073 287.809322,39.5611073 L300.20339,41.0483955 C300.20339,41.0483955 294.254237,48.4848362 295.245763,48.9805989 C296.237288,49.4763616 308.135593,47.9890734 308.135593,47.9890734 L307.144068,52.4509378 C307.144068,52.4509378 308.631356,51.9551751 298.716102,52.4509378 C288.800847,52.9467006 283.84322,57.9043277 283.84322,60.3831412 C283.84322,62.8619548 287.809322,77.2390734 294.254237,77.7348362 C300.699153,78.2305989 319.042373,55.4255141 319.042373,55.4255141 L324,58.4000904 C324,58.4000904 312.597458,64.3492429 312.101695,69.8026328 C311.605932,75.2560226 305.161017,88.6416158 302.186441,88.6416158 C299.211864,88.6416158 279.877119,94.5907684 277.894068,88.6416158 C275.911017,82.6924633 262.525424,80.2136497 259.550847,80.7094124 C256.576271,81.2051751 234.762712,101.035684 234.762712,101.035684 L229.309322,101.035684 L234.266949,164.493311 L239,344 L159.182203,343.504237 Z" id="Page-1" fill="#1B0042"></path>
                    <path d="M158.83256,41.7214574 C170.51797,41.7214574 184.540462,41.2553818 192.019124,47.3143645 C199.497786,53.3733472 221.466357,63.1609346 228.477603,56.6358763 C235.488849,50.110818 240.630429,44.5179109 219.129275,38.4589282 C197.628121,32.3999455 185.942711,31.4677944 187.34496,29.603492 C188.747209,27.7391896 208.378698,31.0017188 210.248363,26.8070384 C212.118029,22.6123581 212.118029,19.8159046 216.324776,19.8159046 C220.531524,19.8159046 226.140521,24.0105849 232.68435,22.6123581 C239.22818,21.2141314 243.902344,23.0784337 243.902344,24.0105849 C243.902344,24.9427361 245.772009,29.603492 241.097846,31.4677944 C236.423682,33.3320967 238.293347,39.3910794 244.36976,39.857155 C250.446173,40.3232306 255.120337,38.9250038 255.587754,42.6536086 C256.05517,46.3822133 259.327085,49.6447424 266.338331,49.6447424 C273.349577,49.6447424 274.28441,44.9839865 275.686659,45.9161377 C277.088908,46.8482889 279.893406,53.8394227 284.56757,53.8394227 C289.241734,53.8394227 292.981066,50.5768936 290.643984,59.4323298 C288.306902,68.2877661 295.785564,61.2966322 297.65523,61.2966322 C299.524895,61.2966322 300.459728,63.1609346 299.057479,66.4234637 C297.65523,69.6859928 300.082055,69.4175333 303.309566,67.9204985 C306.536141,66.4234637 309.340639,69.6859928 311.210305,69.2199173 C313.079971,68.7538417 316.819302,67.3556149 318.688967,69.6859928 C320.558633,72.0163708 324.297964,68.7538417 324.765381,67.8216905 C325.232797,66.8895393 334.581125,68.7538417 339.255289,68.7538417 C343.929453,68.7538417 347.668784,65.4913125 343.929453,59.8984054 C340.190122,54.3054983 343.462036,54.7715739 345.799118,54.7715739 C348.1362,54.7715739 351.408115,54.3054983 348.603617,51.5090448 C345.799118,48.7125912 350.473282,51.0429692 350.005866,48.7125912 C349.53845,46.3822133 347.668784,45.9161377 349.53845,43.5857597 C351.408115,41.2553818 347.201368,38.9250038 344.396869,42.187533 C341.592371,45.4500621 334.113708,47.7804401 330.374377,47.7804401 C326.635046,47.7804401 318.221551,44.5179109 317.286718,41.7214574 C316.351885,38.9250038 328.972128,40.7893062 333.178876,40.3232306 C337.385623,39.857155 341.592371,37.0607015 329.439544,31.4677944 C317.286718,25.8748873 302.79681,20.7480558 292.513649,23.0784337 C282.230488,25.4088117 278.958574,25.4088117 276.621492,24.4766605 C274.28441,23.5445093 264.001249,14.6890731 258.392252,14.6890731 C252.783255,14.6890731 263.533833,14.6890731 263.066416,10.4943927 C262.599,6.29971243 259.327085,-2.55572381 237.358514,0.706805331 C215.389944,3.96933447 217.259609,0.24072974 206.509032,1.17288092 C195.758455,2.10503211 187.812376,4.90148565 187.812376,4.90148565 C187.812376,4.90148565 185.942711,0.706805331 178.464048,0.706805331 C170.985386,0.706805331 152.756147,5.83363684 143.407819,9.56224157 C134.059491,13.2908463 113.025753,16.5533754 106.94934,17.019451 C100.872927,17.4855266 86.8504346,25.4088117 81.2414379,26.3409629 C75.6324411,27.273114 62.544782,29.603492 63.0121984,34.2642479 C63.4796148,38.9250038 68.1537787,43.5857597 74.6976083,44.0518353 C81.2414379,44.5179109 85.9156018,46.3822133 93.3942642,44.5179109 C100.872927,42.6536086 111.623504,44.0518353 114.895418,42.187533 C118.167333,40.3232306 127.048245,36.1285503 127.048245,36.1285503 C138.733655,36.1285503 147.14715,41.7214574 158.83256,41.7214574 Z" id="Fill-3" fill="#373867"></path>
                    <path d="M67.4411127,34.9599555 C71.5690571,34.9599555 67.4411127,28.0522803 68.8170942,28.0522803 C70.1930757,28.0522803 78.4489644,28.0522803 80.5129366,27.3615128 C82.5769087,26.6707453 83.2648995,17 91.5207882,17 C99.7766769,17 109.408547,24.5984427 109.408547,27.3615128 C109.408547,30.1245829 113.536491,39.7953281 116.288454,39.7953281 C119.040417,39.7953281 133.488223,36.3414905 138.304158,35.650723 C143.120093,34.9599555 150,40.4860957 150,43.9399333 C150,47.3937709 139.680139,52.2291435 138.992148,57.0645161 C138.304158,61.8998888 141.056121,74.3337041 134.864204,77.0967742 C128.672287,79.8598443 97.024714,94.3659622 87.3928438,79.1690768 C77.7609737,63.9721913 76.3849922,69.4983315 76.3849922,69.4983315 C76.3849922,69.4983315 64.0011591,90.9121246 53.6812982,79.1690768 C43.3614373,67.4260289 36.48153,61.2091212 36.48153,61.2091212 C36.48153,61.2091212 17.9057804,75.0244716 15.8418082,72.9521691 C13.777836,70.8798665 10.3378824,63.9721913 14.4658268,61.2091212 C18.5937711,58.4460512 -0.669969232,62.5906563 0.0180214949,57.7552836 C0.706012222,52.919911 11.0258731,52.2291435 14.4658268,52.919911 C17.9057804,53.6106785 2.7699844,46.7030033 4.83395658,39.7953281 C6.89792877,32.8876529 36.48153,33.5784205 37.8575115,36.3414905 C39.2334929,39.1045606 48.8653631,30.8153504 50.2413446,30.8153504 C61.2491962,30.8153504 63.3131684,34.9599555 67.4411127,34.9599555 Z" id="Fill-1" fill="#373867"></path>
                </g>
            </g>
        </g>
    </g>
</svg>