<?xml version="1.0" encoding="UTF-8"?>
<svg width="24px" height="24px" viewBox="0 0 24 24" version="1.1" xmlns="http://www.w3.org/2000/svg" xmlns:xlink="http://www.w3.org/1999/xlink">
    <!-- Generator: Sketch 47.1 (45422) - http://www.bohemiancoding.com/sketch -->
    <title>noun_1531652_cc</title>
    <desc>Created with Sketch.</desc>
    <defs></defs>
    <g id="Symbols" stroke="none" stroke-width="1" fill="none" fill-rule="evenodd">
        <g id="Choix-du-chapitre" transform="translate(-49.000000, -42.000000)" fill-rule="nonzero" fill="#000000">
            <g id="Group-3">
                <g id="Group-2" transform="translate(31.000000, 24.000000)">
                    <g id="noun_1531652_cc" transform="translate(18.000000, 18.000000)">
                        <g id="Group">
                            <path d="M6.25781225,0.0914981053 C5.84358725,0.0914981053 5.50781225,0.430820211 5.50781225,0.849392842 L5.50781225,3.76255074 C4.63813225,4.07793853 4.00781225,4.92072 4.00781225,5.90202442 C4.00781225,7.14876884 5.02406225,8.17570863 6.25781225,8.17570863 C7.49156225,8.17570863 8.50781225,7.14876884 8.50781225,5.90202442 C8.50781225,4.92072 7.87749225,4.07793853 7.00781225,3.76255074 L7.00781225,0.849392842 C7.00781225,0.430820211 6.67201225,0.0914981053 6.25781225,0.0914981053 L6.25781225,0.0914981053 Z M17.7578123,0.0914981053 C17.3435873,0.0914981053 17.0078123,0.430820211 17.0078123,0.849392842 L17.0078123,3.76255074 C16.1381298,4.07793853 15.5078123,4.92072 15.5078123,5.90202442 C15.5078123,7.14876884 16.5240623,8.17570863 17.7578123,8.17570863 C18.9915623,8.17570863 20.0078123,7.14876884 20.0078123,5.90202442 C20.0078123,4.92072 19.3774948,4.07793853 18.5078123,3.76255074 L18.5078123,0.849392842 C18.5078123,0.430820211 18.1720123,0.0914981053 17.7578123,0.0914981053 Z M2.75781225,1.60728758 C1.24311225,1.60728758 -2.49999984e-07,2.86350063 -2.49999984e-07,4.39412968 L-2.49999984e-07,21.0520168 C-2.49999984e-07,22.5826611 1.24311225,23.8388716 2.75781225,23.8388716 L21.2421878,23.8388716 C22.7568628,23.8388716 24.0000003,22.5826611 24.0000003,21.0520168 L24.0000003,4.39412968 C24.0000003,2.86350063 22.7568628,1.60728758 21.2421878,1.60728758 L19.7499998,1.60728758 C19.3537748,1.60162863 18.9921873,1.964736 18.9921873,2.36518232 C18.9921873,2.76562863 19.3537748,3.12873853 19.7499998,3.12307705 L21.2421878,3.12307705 C21.9503878,3.12307705 22.5000003,3.67845474 22.5000003,4.39412968 L22.5000003,8.68097179 L1.49999975,8.68097179 L1.49999975,4.39412968 C1.49999975,3.67845474 2.04958725,3.12307705 2.75781225,3.12307705 L4.24999975,3.12307705 C4.64622475,3.128736 5.00781225,2.76562863 5.00781225,2.36518232 C5.00781225,1.964736 4.64622475,1.60162611 4.24999975,1.60728758 L2.75781225,1.60728758 Z M8.24999975,1.60728758 C7.83577475,1.60728758 7.49999975,1.94659705 7.49999975,2.36518232 C7.49999975,2.78374232 7.83577475,3.12307705 8.24999975,3.12307705 L15.7499998,3.12307705 C16.1642248,3.12307705 16.4999998,2.78374232 16.4999998,2.36518232 C16.4999998,1.94659705 16.1642248,1.60728758 15.7499998,1.60728758 L8.24999975,1.60728758 Z M6.25781225,5.14412968 C6.68091225,5.14412968 7.00781225,5.47447326 7.00781225,5.90202442 C7.00781225,6.32957558 6.68091225,6.65991916 6.25781225,6.65991916 C5.83471225,6.65991916 5.50781225,6.32957558 5.50781225,5.90202442 C5.50781225,5.47447326 5.83471225,5.14412968 6.25781225,5.14412968 Z M17.7578123,5.14412968 C18.1809123,5.14412968 18.5078123,5.47447326 18.5078123,5.90202442 C18.5078123,6.32957558 18.1809123,6.65991916 17.7578123,6.65991916 C17.3347123,6.65991916 17.0078123,6.32957558 17.0078123,5.90202442 C17.0078123,5.47447326 17.3347123,5.14412968 17.7578123,5.14412968 Z M1.49999975,10.1967613 L22.5000003,10.1967613 L22.5000003,21.0520168 C22.5000003,21.7676968 21.9503878,22.3230821 21.2421878,22.3230821 L2.75781225,22.3230821 C2.04958725,22.3230821 1.49999975,21.7676968 1.49999975,21.0520168 L1.49999975,10.1967613 Z" id="Shape"></path>
                        </g>
                    </g>
                </g>
            </g>
        </g>
    </g>
</svg>