<?xml version="1.0" encoding="UTF-8"?>
<svg width="177px" height="44px" viewBox="0 0 177 44" version="1.1" xmlns="http://www.w3.org/2000/svg" xmlns:xlink="http://www.w3.org/1999/xlink">
    <!-- Generator: Sketch 47.1 (45422) - http://www.bohemiancoding.com/sketch -->
    <title>Saroy</title>
    <desc>Created with Sketch.</desc>
    <defs></defs>
    <g id="✅-Maquettes" stroke="none" stroke-width="1" fill="none" fill-rule="evenodd">
        <g id="Choix-de-l'exo" transform="translate(-391.000000, 0.000000)">
            <g id="Saroy" transform="translate(391.000000, -1.000000)">
                <path d="M88.5,45 C124.561354,45 156.588106,27.725815 176.756938,1.00076335 C176.778279,0.972484771 117.942807,0.975779208 0.250522092,1.01064666 C20.4197904,27.7300737 52.4430915,45 88.5,45 Z" id="Oval" fill="#FFE624"></path>
                <path d="M68.691,24.21 C67.158,24.21 65.709,23.832 64.785,23.454 C64.344,23.265 64.134,22.971 64.134,22.635 C64.134,22.215 64.386,21.942 64.806,21.942 C64.974,21.942 65.142,21.963 65.436,22.047 C66.171,22.278 67.578,22.614 68.691,22.614 C70.833,22.614 72.009,21.669 72.009,20.094 C72.009,18.561 71.148,18.015 68.775,17.322 C65.436,16.356 64.134,15.243 64.134,13.08 C64.134,10.539 66.108,9.09 68.964,9.09 C70.56,9.09 71.694,9.384 72.534,9.762 C72.786,9.909 72.933,10.119 72.933,10.455 C72.933,10.854 72.681,11.148 72.24,11.148 C72.135,11.148 71.967,11.127 71.652,11.064 C70.854,10.854 70.056,10.686 68.922,10.686 C66.822,10.686 65.835,11.715 65.835,13.08 C65.835,14.466 66.927,15.033 69.426,15.768 C72.744,16.734 73.71,17.994 73.71,20.094 C73.71,22.593 71.862,24.21 68.691,24.21 Z M80.028,24.21 C76.794,24.21 74.925,22.215 74.925,18.708 C74.925,15.201 76.794,13.206 80.028,13.206 C83.283,13.206 85.131,15.201 85.131,18.708 C85.131,22.215 83.283,24.21 80.028,24.21 Z M80.028,22.656 C82.275,22.656 83.472,21.27 83.472,18.708 C83.472,16.146 82.275,14.76 80.028,14.76 C77.781,14.76 76.584,16.146 76.584,18.708 C76.584,21.27 77.781,22.656 80.028,22.656 Z M92.4569999,13.29 C92.9819999,13.29 93.2759999,13.584 93.2759999,14.067 C93.2759999,14.55 92.9819999,14.844 92.4569999,14.844 C90.0419999,14.844 88.7189999,16.251 88.7189999,18.771 L88.7189999,23.181 C88.7189999,23.685 88.4039999,24 87.8999999,24 C87.3749999,24 87.0599999,23.685 87.0599999,23.181 L87.0599999,14.235 C87.0599999,13.731 87.3749999,13.416 87.8999999,13.416 C88.4039999,13.416 88.7189999,13.731 88.7189999,14.235 L88.7189999,15.768 C89.3699999,14.172 90.6719999,13.29 92.4569999,13.29 Z M98.6909999,24.21 C95.4569999,24.21 93.5879999,22.215 93.5879999,18.708 C93.5879999,15.201 95.4569999,13.206 98.6909999,13.206 C101.946,13.206 103.794,15.201 103.794,18.708 C103.794,22.215 101.946,24.21 98.6909999,24.21 Z M98.6909999,22.656 C100.938,22.656 102.135,21.27 102.135,18.708 C102.135,16.146 100.938,14.76 98.6909999,14.76 C96.4439999,14.76 95.2469999,16.146 95.2469999,18.708 C95.2469999,21.27 96.4439999,22.656 98.6909999,22.656 Z M113.619,13.416 C114.039,13.416 114.48,13.752 114.48,14.193 C114.48,14.319 114.438,14.466 114.375,14.634 L107.97,27.696 C107.823,28.032 107.592,28.2 107.277,28.2 C106.836,28.2 106.395,27.864 106.395,27.423 C106.395,27.297 106.437,27.15 106.521,26.982 L108.516,22.908 L104.463,14.634 C104.4,14.466 104.358,14.319 104.358,14.193 C104.358,13.731 104.799,13.416 105.219,13.416 C105.555,13.416 105.786,13.584 105.933,13.92 L109.44,21.018 L112.905,13.92 C113.052,13.584 113.283,13.416 113.619,13.416 Z" id="Soroy" fill="#1B0042"></path>
                <path d="M83.4933968,19.4288348 C83.4903142,18.9870177 83.8459788,18.6263553 84.2877958,18.6232727 C84.7296129,18.6201901 85.0902753,18.9758547 85.0933579,19.4176717 L85.1198782,23.2187492 C85.1229608,23.6605662 84.7672963,24.0212286 84.3254792,24.0243112 C83.8836622,24.0273938 83.5229998,23.6717293 83.5199172,23.2299122 L83.4933968,19.4288348 Z" id="Path" fill="#1B0042"></path>
                <path d="M88.2151869,44.2831541 C87.7962146,44.6429883 87.1648671,44.5950474 86.805033,44.1760751 C86.4451988,43.7571027 86.4931397,43.1257553 86.912112,42.7659211 C88.3377425,41.541519 89.4857224,40.0218897 90.2691679,38.3143835 C91.0416284,36.6308189 91.4468177,34.7947734 91.4468177,32.8995506 C91.4468177,26.9593904 87.4283118,21.8175281 81.766266,20.3269344 C81.2321789,20.1863303 80.913198,19.6393852 81.0538021,19.1052981 C81.1944061,18.5712111 81.7413513,18.2522302 82.2754384,18.3928343 C88.810756,20.113326 93.4468177,26.0453793 93.4468177,32.8995506 C93.4468177,35.0841232 92.9788791,37.2045064 92.0869593,39.1484305 C91.1828479,41.118926 89.8589854,42.8713784 88.2151869,44.2831541 Z" id="Oval-5" fill="#1B0042" fill-rule="nonzero" transform="translate(87.233712, 31.442097) rotate(102.000000) translate(-87.233712, -31.442097) "></path>
            </g>
        </g>
    </g>
</svg>