<?xml version="1.0" encoding="UTF-8"?>
<svg width="13px" height="16px" viewBox="0 0 13 16" version="1.1" xmlns="http://www.w3.org/2000/svg" xmlns:xlink="http://www.w3.org/1999/xlink">
    <!-- Generator: Sketch 47.1 (45422) - http://www.bohemiancoding.com/sketch -->
    <title>noun_429216_cc</title>
    <desc>Created with Sketch.</desc>
    <defs></defs>
    <g id="✅-Maquettes" stroke="none" stroke-width="1" fill="none" fill-rule="evenodd">
        <g id="Choix-du-chapitre" transform="translate(-280.000000, -165.000000)" fill-rule="nonzero" fill="#FFFFFF">
            <g id="Group-8" transform="translate(43.000000, 156.000000)">
                <g id="Group-6" transform="translate(203.000000, 0.000000)">
                    <g id="noun_429216_cc" transform="translate(34.000000, 9.000000)">
                        <polygon id="Shape" points="1.97351471 10.3930667 5.2715 12.5395556 10.5733971 5.49831111 7.27522059 3.352"></polygon>
                        <path d="M12.0014853,0.338311111 C11.0916765,-0.254222222 9.83583824,-0.0483555556 9.19807353,0.798222222 L8.04470588,2.32977778 L11.3428824,4.47608889 L12.4954853,2.94524444 C13.1334412,2.09848889 12.9118676,0.931377778 12.0014853,0.338311111 Z" id="Shape"></path>
                        <path d="M0.963147059,11.7347556 C0.680779412,12.1095111 0.415426471,12.7893333 0.372794118,13.2448 L0.141852941,15.7255111 C0.120632353,15.9541333 0.285044118,16.0609778 0.508911765,15.9642667 L2.93666176,14.9139556 C3.38286765,14.7212444 3.97857353,14.2567111 4.26094118,13.8817778 L4.50163235,13.5621333 L1.20364706,11.4152889 L0.963147059,11.7347556 Z" id="Shape"></path>
                    </g>
                </g>
            </g>
        </g>
    </g>
</svg>