<?xml version="1.0" encoding="UTF-8"?>
<svg width="162px" height="162px" viewBox="0 0 162 162" version="1.1" xmlns="http://www.w3.org/2000/svg" xmlns:xlink="http://www.w3.org/1999/xlink">
    <!-- Generator: Sketch 49.3 (51167) - http://www.bohemiancoding.com/sketch -->
    <title>Group 6</title>
    <desc>Created with Sketch.</desc>
    <defs></defs>
    <g id="✅-Maquettes" stroke="none" stroke-width="1" fill="none" fill-rule="evenodd">
        <g id="Exercice-04" transform="translate(-622.000000, -207.000000)">
            <g id="Group-6" transform="translate(618.000000, 203.000000)">
                <rect id="Rectangle-6" fill="#22235D" transform="translate(85.000000, 85.000000) rotate(45.000000) translate(-85.000000, -85.000000) " x="25" y="25" width="120" height="120" rx="11"></rect>
                <g id="002-rainbow" transform="translate(19.000000, 24.000000)" fill-rule="nonzero">
                    <path d="M109.844909,14.3453268 L102.467272,14.3453268 C63.1198701,14.3453268 29.7156457,40.1670591 18.4440945,75.8256417 L18.4440945,76.0304961 C18.4440945,76.0304961 16.8045394,80.7440669 16.3948307,84.022937 L16.3948307,84.2277913 C12.9108661,85.0474488 10.2467992,88.3265591 10.2467992,92.2202323 C10.2467992,93.8597874 10.656748,95.294248 11.4764055,96.7287087 C5.94317717,97.958315 2.04950394,102.87674 2.04950394,108.614823 C2.04950394,100.212433 2.66430709,92.2199921 2.66430709,92.2199921 C7.78758661,41.6017598 50.6187126,2.04926378 102.672126,2.04926378 C103.082075,2.04926378 117.017453,2.04926378 117.017453,2.04926378 L117.017453,2.86892126 C113.328634,4.50847638 110.664567,7.99244094 110.664567,12.296063 C110.664567,12.9108661 110.664567,13.5256693 110.869421,14.1404724 L109.844909,14.3453268 Z" id="Shape" fill="#C49AE9"></path>
                    <path d="M40.9869567,79.9244094 C36.4784803,79.9244094 32.3797126,81.5639646 29.1008425,84.2280315 L28.8959882,84.0231772 C29.7156457,79.104752 32.1748583,73.9814724 32.1748583,73.9814724 C42.8313661,47.9548858 69.6778504,26.8464843 103.492024,26.8464843 L112.714071,26.8464843 C112.714071,28.4860394 113.328874,29.9205 114.148531,31.1501063 C109.844909,32.1748583 106.566039,35.248874 105.131339,39.1425472 L104.516535,38.9376929 C101.647374,38.9376929 96.3192402,39.1425472 96.3192402,39.1425472 C75.0059843,41.191811 56.7669843,53.6929685 46.9301339,71.5222598 C46.9301339,71.5222598 44.0609724,75.6210276 43.0364606,79.104752 L42.8316063,79.9244094 C42.4214173,79.9244094 41.6017598,79.9244094 40.9869567,79.9244094" id="Shape" fill="#FFD0A1"></path>
                    <path d="M16.3948307,84.0231772 C16.8047795,80.5392126 18.4440945,76.0307362 18.4440945,76.0307362 L18.4440945,75.8258819 C29.7154055,40.1672992 63.1198701,14.3455669 102.467272,14.3455669 L109.844909,14.3455669 L110.869661,14.1407126 C110.869661,14.1407126 110.869661,14.1407126 110.869661,14.3455669 C110.869661,14.3455669 111.484465,19.6739409 114.148531,21.7232047 L114.353386,21.7232047 C113.328634,23.1576654 112.713831,24.7972205 112.713831,26.6416299 L103.491783,26.6416299 C69.6776102,26.6416299 42.831126,47.9548858 32.1746181,73.7766181 C32.1746181,73.7766181 29.7154055,78.8998976 28.895748,83.8183228 L29.1006024,84.0231772 C27.6661417,85.2527835 26.4365354,86.4823898 25.4117835,88.1219449 C23.9773228,85.6627323 21.3130157,83.8183228 18.239,83.8183228 C17.6241969,83.8183228 16.8045394,83.8183228 16.1897362,84.0231772 L16.3948307,84.0231772 Z" id="Shape" fill="#FF7474"></path>
                    <path d="M56.7667441,77.6700512 C56.7667441,77.6700512 55.127189,80.9489213 54.5123858,84.6377402 L53.8975827,85.2525433 C51.0284213,82.3833819 47.134748,80.5389724 43.0359803,80.1292638 L43.0359803,79.3096063 C44.0607323,75.8256417 46.9296535,71.7271142 46.9296535,71.7271142 C56.7665039,53.8978228 75.0057441,41.3969055 96.3187598,39.3474016 C96.3187598,39.3474016 101.851988,39.1425472 104.516055,39.1425472 L105.130858,39.3474016 C104.720909,40.5770079 104.516055,42.0114685 104.516055,43.2410748 C104.516055,45.7002874 105.335713,48.1595 106.565319,50.2087638 L104.925764,51.4383701 C100.622142,51.4383701 96.3185197,51.6432244 96.3185197,51.6432244 C79.104752,52.8730709 64.3494764,63.1198701 56.7667441,77.6700512" id="Shape" fill="#7EE1E6"></path>
                    <path d="M114.353386,21.7229646 C111.27937,19.6737008 110.869421,14.3453268 110.869421,14.3453268 C110.869421,14.3453268 110.869421,14.3453268 110.869421,14.1404724 C110.664567,13.5256693 110.664567,12.9108661 110.664567,12.296063 C110.664567,7.99244094 113.328634,4.50847638 117.017453,2.86916142 C118.247059,2.25435827 119.68152,2.04950394 120.911126,2.04950394 L120.911126,55.1274291 C119.066717,55.3322835 116.812358,55.3322835 116.812358,55.3322835 C112.508736,55.3322835 108.819917,53.2830197 106.565559,50.0039094 C105.131098,47.9546457 104.516295,45.7002874 104.516295,43.0362205 C104.516295,41.6017598 104.72115,40.3721535 105.131098,39.1425472 C106.565559,35.0437795 109.844669,31.9697638 114.148291,31.1501063 C113.328634,29.9205 112.713831,28.4860394 112.713831,26.8464843 C112.713831,24.7969803 113.328634,23.1576654 114.353386,21.7229646 Z M58.6111535,93.2452244 C58.6111535,93.2452244 59.430811,95.9092913 59.430811,100.212913 L59.430811,100.417768 C64.5540906,101.032571 67.6281063,106.565799 67.6281063,110.459472 C67.6281063,116.197555 63.1196299,120.706272 57.3813071,120.706272 L14.3450866,120.706272 C7.58225197,120.706272 2.04902362,115.173043 2.04902362,108.410209 C2.04902362,102.672126 6.14779134,97.7537008 11.4759252,96.5240945 C10.6562677,95.2944882 10.2463189,93.6549331 10.2463189,92.0156181 C10.2463189,88.1219449 12.9103858,85.0479291 16.3943504,84.0231772 C17.0091535,83.8183228 17.6239567,83.8183228 18.4436142,83.8183228 C21.5176299,83.8183228 24.1816969,85.457878 25.6163976,88.1219449 C26.6411496,86.6874843 27.8707559,85.2527835 29.3052165,84.0231772 C32.5840866,81.3591102 36.6828543,79.7195551 41.1913307,79.7195551 C41.8061339,79.7195551 42.6257913,79.7195551 43.2405945,79.9244094 C47.5442165,80.3343583 51.2330354,82.1787677 54.1021969,85.047689 C56.1519409,87.3020472 57.7914961,90.1712087 58.6111535,93.2452244 Z" id="Shape" fill="#ECF4F7"></path>
                    <circle id="Oval" fill="#FFD0A1" cx="2.04926378" cy="16.3948307" r="2.04926378"></circle>
                    <circle id="Oval" fill="#7EE1E6" cx="49.184252" cy="2.04926378" r="2.04926378"></circle>
                    <circle id="Oval" fill="#C49AE9" cx="94.2697362" cy="88.1217047" r="2.04926378"></circle>
                    <path d="M84.0231772,121.935878 C83.408374,121.935878 82.9984252,121.525929 82.9984252,120.911126 L82.9984252,117.83711 L79.9244094,117.83711 C79.3096063,117.83711 78.8996575,117.427161 78.8996575,116.812358 C78.8996575,116.197555 79.3096063,115.787606 79.9244094,115.787606 L82.9984252,115.787606 L82.9984252,112.713591 C82.9984252,112.098787 83.408374,111.688839 84.0231772,111.688839 C84.6379803,111.688839 85.0479291,112.098787 85.0479291,112.713591 L85.0479291,115.787606 L88.1219449,115.787606 C88.736748,115.787606 89.1466969,116.197555 89.1466969,116.812358 C89.1466969,117.427161 88.736748,117.83711 88.1219449,117.83711 L85.0479291,117.83711 L85.0479291,120.911126 C85.047689,121.526169 84.6379803,121.935878 84.0231772,121.935878 Z M57.3815472,121.935878 L14.3453268,121.935878 C6.96768898,121.935878 1.02451181,115.992701 1.02451181,108.615063 C1.02451181,102.87698 4.71333071,97.7534606 10.0417047,96.1141457 C9.42690157,94.8845394 9.22204724,93.6549331 9.22204724,92.2204724 C9.22204724,87.0971929 13.320815,82.9984252 18.4440945,82.9984252 C21.3132559,82.9984252 23.7724685,84.2280315 25.616878,86.4823898 C29.3056969,81.7688189 35.0437795,78.8998976 40.9869567,78.8998976 C49.5942008,78.8998976 57.1766929,84.6379803 59.6359055,92.8355157 C59.8407598,93.4503189 59.4310512,93.8602677 59.0211024,94.065122 C58.4062992,94.2699764 57.9963504,93.8602677 57.7914961,93.4503189 C55.5371378,86.0726811 48.7743031,80.9494016 40.9869567,80.9494016 C35.0437795,80.9494016 29.7156457,83.818563 26.4365354,88.7369882 C26.2316811,88.9418425 25.8217323,89.146937 25.616878,89.146937 C25.2069291,89.146937 25.0020748,88.9420827 24.7972205,88.5321339 C23.5676142,86.2777756 21.1084016,84.843315 18.649189,84.843315 C14.7555157,84.843315 11.4764055,88.122185 11.4764055,92.0160984 C11.4764055,93.4505591 11.8863543,94.6801654 12.7060118,95.9097717 C12.9108661,96.114626 12.9108661,96.5245748 12.7060118,96.9345236 C12.5011575,97.3444724 12.296063,97.5493268 11.8863543,97.5493268 C6.76283465,98.7784528 3.07401575,103.286929 3.07401575,108.615303 C3.07401575,114.763335 8.19729528,119.886614 14.3453268,119.886614 L57.3815472,119.886614 C62.5048268,119.886614 66.6035945,115.787846 66.6035945,110.664567 C66.6035945,108.410209 65.3739882,104.926484 62.7099213,102.87698 C60.6606575,101.44252 58.2014449,101.032571 55.7422323,101.852228 C55.1274291,102.057083 54.7174803,101.647374 54.512626,101.237425 C54.3077717,100.622622 54.7174803,100.212673 55.1274291,100.007819 C59.2261969,98.7782126 62.3002126,100.007819 63.9395276,101.44228 C66.808689,103.491543 68.6530984,107.385457 68.6530984,110.869181 C68.6530984,116.812598 63.5295787,121.935878 57.3815472,121.935878 Z M2.4592126,93.4500787 C1.84440945,93.4500787 1.43446063,92.8352756 1.43446063,92.4253268 C6.55798031,40.3721535 50.0039094,1.2296063 102.467272,1.2296063 C102.87722,1.2296063 104.516535,1.2296063 106.770894,1.2296063 C107.385697,1.2296063 107.795646,1.63955512 107.795646,2.25435827 C107.795646,2.86916142 107.385697,3.27911024 106.770894,3.27911024 C104.72163,3.27911024 103.082075,3.27911024 102.672126,3.27911024 C51.4386102,3.27911024 8.81209843,41.6017598 3.6888189,92.6304213 C3.48396457,93.0401299 3.07401575,93.4500787 2.4592126,93.4500787 Z M79.9244094,82.9984252 C79.3096063,82.9984252 78.8996575,82.5884764 78.8996575,81.9736732 L78.8996575,80.9489213 L77.8749055,80.9489213 C77.2601024,80.9489213 76.8501535,80.5389724 76.8501535,79.9241693 C76.8501535,79.3093661 77.2601024,78.8994173 77.8749055,78.8994173 L78.8996575,78.8994173 L78.8996575,77.8746654 C78.8996575,77.2598622 79.3096063,76.8499134 79.9244094,76.8499134 C80.5392126,76.8499134 80.9491614,77.2598622 80.9491614,77.8746654 L80.9491614,78.8994173 L81.9739134,78.8994173 C82.5887165,78.8994173 82.9986654,79.3093661 82.9986654,79.9241693 C82.9986654,80.5389724 82.5887165,80.9489213 81.9739134,80.9489213 L80.9491614,80.9489213 L80.9491614,81.9736732 C80.9491614,82.5884764 80.5392126,82.9984252 79.9244094,82.9984252 Z M56.7667441,78.6948031 C56.5618898,78.6948031 56.3567953,78.6948031 56.3567953,78.4899488 C55.9468465,78.2850945 55.7419921,77.6702913 55.9468465,77.0554882 C63.9392874,61.6854094 79.1045118,51.6437047 96.319,50.2090039 C96.9338031,50.2090039 97.343752,50.6189528 97.343752,51.2337559 C97.343752,51.8485591 96.9338031,52.2585079 96.319,52.2585079 C79.719315,53.6929685 65.1688937,63.3249646 57.5864016,78.0802402 C57.5866417,78.4899488 57.1766929,78.6948031 56.7667441,78.6948031 Z M18.4440945,76.8503937 C18.4440945,76.8503937 18.2392402,76.8503937 18.0341457,76.8503937 C17.4193425,76.6455394 17.2144882,76.0307362 17.4193425,75.6207874 C29.1006024,38.3226496 63.3247244,13.320815 102.467272,13.320815 C103.082075,13.320815 103.492024,13.7307638 103.492024,14.3455669 C103.492024,14.9603701 103.082075,15.3703189 102.467272,15.3703189 C64.3494764,15.3703189 30.945252,39.7575906 19.4688465,76.2358307 C19.263752,76.6455394 18.8540433,76.8503937 18.4440945,76.8503937 Z M32.1746181,74.8011299 C31.9697638,74.8011299 31.9697638,74.8011299 31.7646693,74.8011299 C31.1498661,74.5962756 30.9450118,73.9814724 31.1498661,73.3666693 C42.831126,44.8808701 71.9317283,25.616878 103.491783,25.616878 C104.106587,25.616878 104.516535,26.0268268 104.516535,26.6416299 C104.516535,27.2564331 104.106587,27.6663819 103.491783,27.6663819 C68.0380551,27.6663819 42.6262717,51.0289016 33.1993701,74.1865669 C32.9945157,74.5960354 32.5845669,74.8011299 32.1746181,74.8011299 Z M108.615303,74.8011299 C108.0005,74.8011299 107.590551,74.3911811 107.590551,73.776378 L107.590551,72.751626 L106.565799,72.751626 C105.950996,72.751626 105.541047,72.3416772 105.541047,71.726874 C105.541047,71.1120709 105.950996,70.702122 106.565799,70.702122 L107.590551,70.702122 L107.590551,69.6773701 C107.590551,69.0625669 108.0005,68.6526181 108.615303,68.6526181 C109.230106,68.6526181 109.640055,69.0625669 109.640055,69.6773701 L109.640055,70.702122 L110.664807,70.702122 C111.27961,70.702122 111.689559,71.1120709 111.689559,71.726874 C111.689559,72.3416772 111.27961,72.751626 110.664807,72.751626 L109.640055,72.751626 L109.640055,73.776378 C109.639815,74.3911811 109.230106,74.8011299 108.615303,74.8011299 Z M46.9298937,72.5467717 C46.7250394,72.5467717 46.5199449,72.5467717 46.5199449,72.3419173 C46.1099961,72.137063 45.9051417,71.5222598 46.1099961,70.9074567 C56.3570354,52.2582677 75.2108386,39.9622047 96.3192402,37.9127008 C96.9340433,37.9127008 97.3439921,38.3226496 97.3439921,38.9374528 C97.3439921,39.5522559 96.9340433,39.9622047 96.3192402,39.9622047 C75.8258819,41.8066142 57.7914961,53.8978228 47.7497913,71.7271142 C47.5446969,72.3419173 47.3398425,72.5467717 46.9298937,72.5467717 Z M117.222547,56.3570354 C116.812598,56.3570354 116.812598,56.3570354 116.607744,56.3570354 C109.230106,56.3570354 103.286929,50.4138583 103.286929,43.0362205 C103.286929,37.2981378 106.975748,32.1746181 112.304122,30.3302087 C111.689319,29.1006024 111.484465,27.8709961 111.484465,26.6413898 C111.484465,22.3377677 114.353626,18.6489488 118.452154,17.6241969 C119.066957,17.4193425 119.476906,17.8290512 119.68176,18.4438543 C119.886614,19.0586575 119.476906,19.4686063 118.862102,19.6734606 C115.583232,20.4931181 113.533728,23.3622795 113.533728,26.6411496 C113.533728,28.0756102 113.943677,29.3052165 114.763335,30.5348228 C114.968189,30.7396772 114.968189,31.149626 114.763335,31.5595748 C114.55848,31.9695236 114.353386,32.174378 113.943677,32.174378 C108.820398,33.4039843 105.131579,37.9124606 105.131579,43.2408346 C105.131579,49.3888661 110.254858,54.5121457 116.40289,54.5121457 C116.40289,54.5121457 118.657248,54.5121457 120.296563,54.3072913 C120.911366,54.3072913 121.321315,54.5121457 121.526169,55.1269488 C121.526169,55.741752 121.321315,56.1517008 120.706512,56.3565551 C119.68176,56.3570354 118.042205,56.3570354 117.222547,56.3570354 Z M6.1480315,46.1102362 C5.53322835,46.1102362 5.12327953,45.7002874 5.12327953,45.0854843 L5.12327953,44.0607323 L4.09852756,44.0607323 C3.48372441,44.0607323 3.07377559,43.6507835 3.07377559,43.0359803 C3.07377559,42.4211772 3.48372441,42.0112283 4.09852756,42.0112283 L5.12327953,42.0112283 L5.12327953,40.9864764 C5.12327953,40.3716732 5.53322835,39.9617244 6.1480315,39.9617244 C6.76283465,39.9617244 7.17278346,40.3716732 7.17278346,40.9864764 L7.17278346,42.0112283 L8.19753543,42.0112283 C8.81233858,42.0112283 9.2222874,42.4211772 9.2222874,43.0359803 C9.2222874,43.6507835 8.81233858,44.0607323 8.19753543,44.0607323 L7.17278346,44.0607323 L7.17278346,45.0854843 C7.17278346,45.7002874 6.76283465,46.1102362 6.1480315,46.1102362 Z M110.869421,15.3700787 C110.459472,15.3700787 110.049764,14.9601299 109.844669,14.5504213 C109.639815,13.7307638 109.639815,13.1159606 109.639815,12.296063 C109.639815,6.1480315 114.763094,1.02475197 120.911126,1.02475197 C121.525929,1.02475197 121.935878,1.43470079 121.935878,2.04950394 C121.935878,2.66430709 121.525929,3.07425591 120.911126,3.07425591 C115.787846,3.07425591 111.689079,7.17302362 111.689079,12.2963031 C111.689079,12.9111063 111.689079,13.5259094 111.893933,14.1407126 C112.098787,14.7555157 111.689079,15.1654646 111.074276,15.3703189 C111.074516,15.3700787 110.869421,15.3700787 110.869421,15.3700787 Z M18.4440945,11.271311 C17.8292913,11.271311 17.4193425,10.8613622 17.4193425,10.2465591 L17.4193425,7.17254331 L14.3453268,7.17254331 C13.7305236,7.17254331 13.3205748,6.76259449 13.3205748,6.14779134 C13.3205748,5.53298819 13.7305236,5.12303937 14.3453268,5.12303937 L17.4193425,5.12303937 L17.4193425,2.04902362 C17.4193425,1.43422047 17.8292913,1.02427165 18.4440945,1.02427165 C19.0588976,1.02427165 19.4688465,1.43422047 19.4688465,2.04902362 L19.4688465,5.12303937 L22.5428622,5.12303937 C23.1576654,5.12303937 23.5676142,5.53298819 23.5676142,6.14779134 C23.5676142,6.76259449 23.1576654,7.17254331 22.5428622,7.17254331 L19.4688465,7.17254331 L19.4688465,10.2465591 C19.4688465,10.8616024 19.0588976,11.271311 18.4440945,11.271311 Z" id="Shape" fill="#51565F"></path>
                </g>
            </g>
        </g>
    </g>
</svg>