<?xml version="1.0" encoding="UTF-8"?>
<svg width="19px" height="13px" viewBox="0 0 19 13" version="1.1" xmlns="http://www.w3.org/2000/svg" xmlns:xlink="http://www.w3.org/1999/xlink">
    <!-- Generator: Sketch 47.1 (45422) - http://www.bohemiancoding.com/sketch -->
    <title>Group 2</title>
    <desc>Created with Sketch.</desc>
    <defs></defs>
    <g id="✅-Wireframes-V2" stroke="none" stroke-width="1" fill="none" fill-rule="evenodd">
        <g id="Exercice-01" transform="translate(-498.000000, -25.000000)" fill-rule="nonzero" fill="#282828">
            <g id="Group-2" transform="translate(498.000000, 25.000000)">
                <path d="M9.03526613,0.0816420663 L4.54937634,2.87850661 L0.612903226,2.87850661 C0.274427419,2.87850661 0,3.15673768 0,3.50002055 L0,9.43889705 C0,9.78217991 0.274427419,10.060411 0.612903226,10.060411 L4.54958065,10.060411 L9.03526613,12.8572755 C9.31704839,13.0330604 9.64816935,12.8963791 9.64816935,12.2357616 L9.64816935,0.703156011 C9.64816935,0.0362197556 9.33558871,-0.112943591 9.03526613,0.0816420663 Z M12.235336,9.08950262 C13.4858118,7.84331537 13.4858629,5.3514588 12.2353871,3.97428748 C11.4163441,3.09981737 10.6184973,4.08357035 11.0282742,4.54266199 C12.1060134,5.72302055 12.1060134,7.42819585 11.0282742,8.54319187 C10.5752876,9.02372573 11.4163441,10.0075823 12.235336,9.08950262 L12.235336,9.08950262 Z M16.5470591,12.4341799 C19.7159731,9.15533131 19.7159731,3.68994486 16.5471102,0.279853222 C15.8140269,-0.485230444 14.9086667,0.454809397 15.620043,1.46026358 C18.1855538,4.30223968 18.1421909,8.49927155 15.6199409,11.2976899 C14.4342796,12.4125305 15.6198898,13.6366022 16.5470591,12.4341799 L16.5470591,12.4341799 Z M14.4342796,10.8821042 C16.6547769,8.12776159 16.6547769,4.93592493 14.4560887,2.35648669 C13.4213038,1.15427155 12.4941855,2.42215999 13.4212016,3.34023968 C15.1028548,5.13273768 15.1028038,7.99646677 13.4212016,9.81082135 C12.5156882,10.7945743 13.3995457,11.9095704 14.4342796,10.8821042 L14.4342796,10.8821042 Z" id="Shape"></path>
            </g>
        </g>
    </g>
</svg>